<svg version="1.1" xmlns="http://www.w3.org/2000/svg" viewBox="0 0 1290.0992587222572 434.75" width="2580.1985174445144" height="869.5">
  <!-- svg-source:excalidraw -->
  
  <defs>
    <style class="style-fonts">
      
    </style>
    
  </defs>
  <g stroke-linecap="round" transform="translate(10 10) rotate(0 372.5 173.5)"><path d="M32 0 C231.75 -6.03, 434.87 -4.59, 713 0 C736.19 4.94, 740.46 15.39, 745 32 C742.32 129.7, 741.97 229.52, 745 315 C743.82 337, 728.77 341.67, 713 347 C457.24 343.66, 206.65 342.1, 32 347 C13.81 348.78, 5.03 337.98, 0 315 C5.17 247.37, 9.06 183.17, 0 32 C2.27 6.68, 13.31 -3.61, 32 0" stroke="none" stroke-width="0" fill="#b2f2bb"></path><path d="M32 0 C271.73 2.54, 512.7 2.18, 713 0 M32 0 C233.79 -3.72, 435.99 -3.82, 713 0 M713 0 C733.39 0.47, 741.84 9.41, 745 32 M713 0 C738.84 2.93, 745.07 8.13, 745 32 M745 32 C745.12 134.86, 749.31 240.99, 745 315 M745 32 C750.31 144.66, 748.08 258.21, 745 315 M745 315 C741.84 335.78, 735.12 343.13, 713 347 M745 315 C740.77 340.17, 735.49 350.37, 713 347 M713 347 C545.12 351.29, 378.02 348.17, 32 347 M713 347 C483.9 344.43, 254.93 343.33, 32 347 M32 347 C7.09 346.9, 2.97 338.22, 0 315 M32 347 C8.58 343.81, -3.16 338.41, 0 315 M0 315 C-1.38 225.98, -1.68 139.99, 0 32 M0 315 C0.44 221.53, -0.82 127.87, 0 32 M0 32 C-2.37 14.55, 13.33 2.85, 32 0 M0 32 C3.22 14.31, 9.22 1.05, 32 0" stroke="#2f9e44" stroke-width="2" fill="none"></path></g><g stroke-linecap="round" transform="translate(44 44.5) rotate(0 68 72.5)"><path d="M32 0 C62.56 -2.47, 84.43 0.31, 104 0 C129.95 0.45, 138.98 8.21, 136 32 C129.13 56.26, 128.55 79.97, 136 113 C138.29 138.76, 128.65 143.62, 104 145 C92.9 150.47, 74.97 144.73, 32 145 C12.61 145.5, -3.68 131.32, 0 113 C6.63 95.13, -2.97 80.31, 0 32 C-3.49 9.68, 5.68 5.29, 32 0" stroke="none" stroke-width="0" fill="#ebfbee"></path><path d="M32 0 C50.35 -3.67, 63.94 3.23, 104 0 M32 0 C61.11 2.69, 87.33 2.2, 104 0 M104 0 C126.6 3.59, 137.18 7.84, 136 32 M104 0 C121.15 -4.11, 135.65 7.72, 136 32 M136 32 C132.38 64.96, 132.65 93.55, 136 113 M136 32 C134.48 49.67, 136.02 67.1, 136 113 M136 113 C133.09 132.87, 125.25 141.13, 104 145 M136 113 C134.51 131.8, 125.98 143.91, 104 145 M104 145 C81.49 147.2, 62.97 150.1, 32 145 M104 145 C85.73 143.59, 71.91 143.32, 32 145 M32 145 C10.11 143.69, 3.11 133.33, 0 113 M32 145 C14.86 147.4, 2.68 135.52, 0 113 M0 113 C2.75 90.06, -3.44 65.68, 0 32 M0 113 C-1.35 82.87, 0.93 51.86, 0 32 M0 32 C2.64 12.02, 7.63 3.35, 32 0 M0 32 C-0.05 8.97, 14.02 4.16, 32 0" stroke="#2f9e44" stroke-width="2" fill="none"></path></g><g stroke-linecap="round" transform="translate(220.5 44.5) rotate(0 68 72.5)"><path d="M32 0 C57.02 1.75, 80.59 3.51, 104 0 C123.59 -2.37, 138.9 10.15, 136 32 C134.44 52.6, 135.78 78.65, 136 113 C134.5 133.44, 130.84 149.53, 104 145 C89 139.1, 73.77 142.84, 32 145 C8.46 144.09, 5.25 135.85, 0 113 C-1.46 83.85, 0.42 54.99, 0 32 C0.76 15.16, 12.49 3.56, 32 0" stroke="none" stroke-width="0" fill="#ebfbee"></path><path d="M32 0 C54.27 0.35, 73.29 -0.75, 104 0 M32 0 C47.55 -0.67, 62.41 -0.08, 104 0 M104 0 C127.95 1.93, 139.02 7.76, 136 32 M104 0 C127.14 3.55, 133.67 14.78, 136 32 M136 32 C137.81 48.51, 138.16 70.27, 136 113 M136 32 C133.66 49.22, 133.56 64.25, 136 113 M136 113 C135.12 137.25, 128.54 141.56, 104 145 M136 113 C138.35 129.89, 120.77 142.63, 104 145 M104 145 C78.18 142.35, 58.87 141.87, 32 145 M104 145 C80.04 145.37, 59.48 144.69, 32 145 M32 145 C11.67 143.86, 0.54 132.53, 0 113 M32 145 C7.79 141.49, -1.06 134.23, 0 113 M0 113 C-3.78 79.59, -4.4 54.22, 0 32 M0 113 C-0.7 97.25, 1.62 78.6, 0 32 M0 32 C-2.4 14, 10.54 -1.12, 32 0 M0 32 C-0.37 11.02, 7.37 -3.65, 32 0" stroke="#2f9e44" stroke-width="2" fill="none"></path></g><g stroke-linecap="round" transform="translate(397 44.5) rotate(0 68 72.5)"><path d="M32 0 C49.31 0.71, 70.59 -0.07, 104 0 C127.45 0.07, 136.13 6.16, 136 32 C135.19 50.9, 134.36 79.32, 136 113 C135.55 138.27, 123.44 146.1, 104 145 C77.07 143.2, 54.29 144.01, 32 145 C12.39 148.52, 1.01 135.3, 0 113 C-3.55 87.1, 2.37 62.8, 0 32 C-5.58 11.1, 15.73 -2.24, 32 0" stroke="none" stroke-width="0" fill="#ebfbee"></path><path d="M32 0 C52.7 -0.87, 72.38 3.34, 104 0 M32 0 C56.01 -0.98, 82.76 -1.82, 104 0 M104 0 C129.03 1.17, 138.56 10.19, 136 32 M104 0 C121.45 1.32, 140.2 6.51, 136 32 M136 32 C138.93 55.99, 132.9 81.41, 136 113 M136 32 C134.94 56.49, 133.01 84.18, 136 113 M136 113 C139.07 135.51, 128.67 142.73, 104 145 M136 113 C139.96 137.07, 126.09 144.57, 104 145 M104 145 C83.47 143.07, 65.6 149.71, 32 145 M104 145 C90.44 143.33, 74.17 144.98, 32 145 M32 145 C11.09 142, 0.33 130.6, 0 113 M32 145 C13.78 143.85, 0.25 132.04, 0 113 M0 113 C2.36 82.61, -1.55 48.03, 0 32 M0 113 C-0.13 88.52, -0.16 63.93, 0 32 M0 32 C-2.17 12.23, 13.44 -2.93, 32 0 M0 32 C-2.94 7.61, 8.11 -2.74, 32 0" stroke="#2f9e44" stroke-width="2" fill="none"></path></g><g stroke-linecap="round" transform="translate(573.5 44.5) rotate(0 48 131)"><path d="M24 0 C38.77 -5.27, 46.02 -2.44, 72 0 C83.18 -4.14, 95.27 5.41, 96 24 C102.08 88.06, 97.51 161.19, 96 238 C98.2 257.67, 82.49 263.76, 72 262 C64.45 261.73, 46.06 257.98, 24 262 C3.77 263.87, 4.46 257.78, 0 238 C-7.48 186.02, -0.97 129.28, 0 24 C-1.38 5.75, 7.49 4.13, 24 0" stroke="none" stroke-width="0" fill="#ebfbee"></path><path d="M24 0 C43.75 3.1, 53.26 0.04, 72 0 M24 0 C43.74 1.68, 61.74 0.75, 72 0 M72 0 C87.47 3.53, 95.72 8.95, 96 24 M72 0 C83.93 -1.77, 94.23 11.04, 96 24 M96 24 C99.46 104.97, 94.87 188.06, 96 238 M96 24 C93.98 81.89, 95.92 138.69, 96 238 M96 238 C97.08 253.61, 91.16 265.81, 72 262 M96 238 C93.16 255.55, 92.6 260.89, 72 262 M72 262 C62.34 264.8, 45.66 261.1, 24 262 M72 262 C60.81 261.12, 53.97 259.4, 24 262 M24 262 C6.35 263.6, -0.4 256.68, 0 238 M24 262 C9.27 262.66, 4.44 256.59, 0 238 M0 238 C-0.71 180.74, 1.49 129.88, 0 24 M0 238 C0.18 167.6, -0.51 96.78, 0 24 M0 24 C-1.37 11.87, 11.28 -2.17, 24 0 M0 24 C-0.33 4.53, 8.25 -4.26, 24 0" stroke="#2f9e44" stroke-width="2" fill="none"></path></g><g stroke-linecap="round" transform="translate(710 44.5) rotate(0 23 80)"><path d="M11.5 0 C25.8 5.4, 29.64 -1.74, 34.5 0 C37.34 5.1, 48.05 0.87, 46 11.5 C47.78 46.13, 48.17 92.38, 46 148.5 C47.72 153, 42.35 159.18, 34.5 160 C25.33 157.69, 16.9 160.1, 11.5 160 C2.01 155.81, 2.53 159.49, 0 148.5 C-6.48 101.05, 1.83 61.86, 0 11.5 C-3.81 -1.59, 2.82 0.15, 11.5 0" stroke="none" stroke-width="0" fill="#ebfbee"></path><path d="M11.5 0 C16.03 -1.77, 19.85 -2.61, 34.5 0 M11.5 0 C19.15 -2.05, 24.63 -1.53, 34.5 0 M34.5 0 C41.39 1.91, 45.36 2.45, 46 11.5 M34.5 0 C40.02 -3.63, 42.62 4.57, 46 11.5 M46 11.5 C45.55 57.81, 50.55 105.77, 46 148.5 M46 11.5 C48.5 51.18, 45.04 87.95, 46 148.5 M46 148.5 C44.3 158.49, 41.51 157.59, 34.5 160 M46 148.5 C45.69 160.14, 40.48 157.36, 34.5 160 M34.5 160 C25.67 156.71, 23.04 161.28, 11.5 160 M34.5 160 C30.67 160.05, 25.62 158.2, 11.5 160 M11.5 160 C5.79 160.34, 0.88 153.05, 0 148.5 M11.5 160 C3.3 164.4, -3.83 152.28, 0 148.5 M0 148.5 C-2.25 92.63, 1.47 41.49, 0 11.5 M0 148.5 C-0.86 107.17, -2.39 66.68, 0 11.5 M0 11.5 C-1.9 4.37, 1.09 0.47, 11.5 0 M0 11.5 C-0.45 -0.76, 5.77 -4.5, 11.5 0" stroke="#2f9e44" stroke-width="2" fill="none"></path></g><g stroke-linecap="round"><g transform="translate(44 91) rotate(0 67.73201359007507 0.7072880345578767)"><path d="M2.26 -1.57 C25.09 -1.62, 113.82 -2.48, 135.42 -2.38 M0.05 3.75 C22.77 4.24, 111.04 0.77, 133.95 0.51" stroke="#2f9e44" stroke-width="2" fill="none"></path></g></g><mask></mask><g stroke-linecap="round"><g transform="translate(220.26798640992502 93.2927119654421) rotate(0 67.1712408092618 -1.9565298059955296)"><path d="M0.67 0.65 C23.03 0.52, 109.57 -0.04, 131.64 -0.06 M-2.41 -1.47 C21.03 -2.54, 114.56 -4.1, 136.76 -4.56" stroke="#2f9e44" stroke-width="2" fill="none"></path></g></g><mask></mask><g stroke-linecap="round"><g transform="translate(398.267986409925 90.2927119654421) rotate(0 67.078195403032 -0.09070745568723737)"><path d="M0.91 1.35 C23.77 1.32, 114.12 -1.33, 136.2 -1.71 M-2.05 -0.39 C20.74 0.14, 112.93 1.1, 135.16 1.53" stroke="#2f9e44" stroke-width="2" fill="none"></path></g></g><mask></mask><g stroke-linecap="round"><g transform="translate(619.2679864099248 48.292711965442095) rotate(0 0.659593129530549 128.11995556913317)"><path d="M-2.29 -1.37 C-1.74 41.43, 2.34 215.01, 3.61 257.61 M1.66 4.05 C1.77 45.89, 0.73 210.97, 1.16 252.94" stroke="#2f9e44" stroke-width="2" fill="none"></path></g></g><mask></mask><g stroke-linecap="round" transform="translate(94 278.75) rotate(0 70.5 72.5)"><path d="M51.77 3.42 C60.65 -0.51, 72.33 -2.2, 82.55 -0.15 C92.77 1.9, 104.57 9.44, 113.07 15.74 C121.57 22.03, 128.92 28.55, 133.57 37.63 C138.22 46.72, 140.37 60.03, 140.98 70.24 C141.58 80.46, 141.21 89.56, 137.18 98.94 C133.15 108.33, 124.93 119.01, 116.79 126.54 C108.65 134.07, 98.3 141.27, 88.34 144.1 C78.38 146.92, 66.92 145.58, 57.04 143.51 C47.16 141.44, 36.94 137.92, 29.08 131.69 C21.22 125.47, 14.66 115.42, 9.88 106.17 C5.11 96.91, 1.43 86.33, 0.4 76.16 C-0.62 66, 0.09 54.66, 3.72 45.21 C7.35 35.76, 12.62 26.95, 22.19 19.47 C31.76 11.98, 53.55 3.2, 61.13 0.3 C68.7 -2.6, 67.87 0.5, 67.65 2.07 M114.26 17.99 C122.09 23.74, 129.87 34.57, 134.63 43.9 C139.39 53.22, 143.25 63.21, 142.82 73.94 C142.39 84.67, 136.83 98.47, 132.06 108.27 C127.3 118.07, 121.93 126.9, 114.23 132.74 C106.52 138.58, 96.44 141.57, 85.83 143.29 C75.23 145.01, 60.46 145.27, 50.58 143.07 C40.69 140.86, 33.58 137.37, 26.55 130.07 C19.51 122.76, 13.05 109.07, 8.35 99.24 C3.65 89.4, -1.14 81.16, -1.64 71.06 C-2.14 60.96, 0.3 48.2, 5.34 38.64 C10.37 29.07, 19.86 19.55, 28.54 13.67 C37.23 7.78, 47.73 5.19, 57.43 3.33 C67.13 1.47, 76.81 -0.18, 86.76 2.5 C96.7 5.18, 112.4 16.51, 117.1 19.41 C121.8 22.31, 115.89 19.7, 114.97 19.91" stroke="none" stroke-width="0" fill="#69db7c"></path><path d="M53.81 3.69 C62.62 0.31, 73.82 -0.68, 83.58 1.12 C93.35 2.92, 103.87 8.18, 112.38 14.48 C120.89 20.77, 129.55 29.58, 134.64 38.87 C139.72 48.16, 142.99 59.41, 142.9 70.22 C142.8 81.04, 138.36 94.33, 134.07 103.77 C129.78 113.22, 125.1 120.55, 117.16 126.91 C109.22 133.27, 96.6 139.31, 86.44 141.93 C76.29 144.56, 65.77 144.89, 56.21 142.65 C46.64 140.42, 37.4 134.93, 29.05 128.53 C20.7 122.13, 11.06 113.55, 6.12 104.26 C1.17 94.97, -0.65 83.18, -0.61 72.81 C-0.56 62.45, 2.41 51.35, 6.37 42.05 C10.33 32.75, 9 23.44, 23.16 17.03 C37.31 10.62, 74.58 1.72, 91.3 3.59 C108.02 5.46, 123.93 27.23, 123.47 28.24 M82.15 1.76 C91.55 1.6, 101.6 5, 110.3 10.47 C119 15.93, 129.68 24.61, 134.37 34.56 C139.05 44.5, 138.35 58.8, 138.41 70.14 C138.48 81.47, 138.05 93.44, 134.73 102.56 C131.41 111.67, 125.79 118.42, 118.5 124.82 C111.2 131.21, 100.53 138.04, 90.96 140.93 C81.38 143.82, 70.93 143.35, 61.04 142.15 C51.15 140.95, 40.69 139.06, 31.63 133.73 C22.57 128.39, 11.72 119.97, 6.7 110.15 C1.68 100.34, 1.27 85.81, 1.5 74.84 C1.73 63.87, 4.28 53.6, 8.07 44.34 C11.86 35.08, 17.22 26.63, 24.25 19.29 C31.27 11.95, 40.49 3.33, 50.2 0.3 C59.9 -2.73, 77.16 1.09, 82.48 1.1 C87.8 1.12, 82.13 -1.18, 82.14 0.37" stroke="#2f9e44" stroke-width="2" fill="none"></path></g><g stroke-linecap="round" transform="translate(422.5 279.75) rotate(0 70.5 72.5)"><path d="M76.75 -0.73 C86.31 -0.76, 96.96 4.83, 105.69 10.06 C114.41 15.3, 123.49 22.1, 129.09 30.68 C134.69 39.26, 138.01 51.13, 139.28 61.53 C140.55 71.93, 139.29 83.24, 136.7 93.1 C134.11 102.96, 130.51 112.67, 123.77 120.7 C117.03 128.72, 106.2 137.36, 96.27 141.24 C86.34 145.11, 74.54 145.05, 64.17 143.96 C53.81 142.87, 42.54 139.74, 34.08 134.68 C25.61 129.62, 18.97 122.29, 13.41 113.57 C7.84 104.86, 2.58 92.45, 0.69 82.37 C-1.19 72.28, -0.85 63.06, 2.1 53.04 C5.04 43.03, 11.65 30.5, 18.36 22.26 C25.07 14.02, 30.56 6.56, 42.36 3.61 C54.17 0.65, 79.43 3.32, 89.19 4.52 C98.95 5.72, 101.19 9.95, 100.93 10.82 M108.8 11.21 C117.23 15.99, 123.61 25.27, 129.29 34.51 C134.97 43.75, 141.23 56.59, 142.88 66.65 C144.53 76.7, 143.12 85.49, 139.19 94.83 C135.26 104.18, 127.17 115.06, 119.31 122.71 C111.44 130.37, 101.82 137.63, 92.01 140.77 C82.19 143.91, 70.87 143.1, 60.42 141.55 C49.98 140, 37.86 136.88, 29.35 131.47 C20.83 126.07, 14.25 117.37, 9.34 109.12 C4.44 100.87, 0.48 91.89, -0.06 81.97 C-0.6 72.05, 2.39 59.98, 6.1 49.62 C9.81 39.25, 14.96 27.52, 22.18 19.77 C29.41 12.02, 39.64 6.51, 49.45 3.12 C59.25 -0.26, 71.21 -1.88, 81.04 -0.55 C90.86 0.79, 103.88 8.66, 108.4 11.12 C112.92 13.59, 109.17 13.27, 108.14 14.26" stroke="none" stroke-width="0" fill="#69db7c"></path><path d="M129.03 28.42 C135.16 36.37, 136.98 51.03, 138.39 61.81 C139.81 72.59, 140.03 83.1, 137.51 93.1 C135 103.09, 130.13 114.22, 123.3 121.78 C116.47 129.33, 105.97 134.83, 96.54 138.45 C87.1 142.07, 76.38 144.01, 66.69 143.49 C57 142.98, 47.57 139.88, 38.4 135.36 C29.23 130.85, 18.05 124.95, 11.66 116.38 C5.28 107.8, 1.46 94.78, 0.09 83.91 C-1.28 73.03, 0.36 60.88, 3.45 51.12 C6.53 41.37, 11.67 33.15, 18.6 25.38 C25.53 17.61, 35.99 8.86, 45.02 4.51 C54.06 0.16, 62.8 -1.66, 72.83 -0.71 C82.86 0.25, 95.69 4.22, 105.21 10.27 C114.73 16.31, 125.52 30.86, 129.95 35.55 C134.37 40.24, 132.85 37.93, 131.78 38.42 M90.68 2.1 C100.88 4.03, 110.82 13.43, 118.62 20.82 C126.42 28.21, 133.6 36.8, 137.47 46.45 C141.34 56.09, 143.16 68.45, 141.84 78.7 C140.53 88.96, 134.84 98.81, 129.58 107.99 C124.33 117.18, 118.51 127.79, 110.33 133.81 C102.14 139.83, 90.74 143.17, 80.48 144.11 C70.22 145.04, 58.44 141.85, 48.77 139.41 C39.09 136.96, 29.17 135.64, 22.43 129.44 C15.7 123.23, 12.21 112.52, 8.35 102.21 C4.49 91.89, -1.24 78.38, -0.71 67.57 C-0.18 56.76, 6.42 46.24, 11.55 37.34 C16.69 28.45, 22.15 20.15, 30.1 14.2 C38.05 8.25, 48.79 3.14, 59.25 1.64 C69.7 0.13, 87.73 4.64, 92.82 5.16 C97.91 5.69, 90.17 3.77, 89.78 4.79" stroke="#2f9e44" stroke-width="2" fill="none"></path></g><g stroke-linecap="round" transform="translate(121 307.51595744680856) rotate(0 43.5 44.73404255319144)"><path d="M23.17 4.31 C29.48 0.48, 41 -2.83, 49.1 -1.51 C57.2 -0.18, 66.02 6.47, 71.79 12.27 C77.56 18.08, 81.15 25.57, 83.73 33.34 C86.32 41.11, 89.32 51.24, 87.3 58.9 C85.29 66.55, 77.82 74.44, 71.64 79.26 C65.46 84.07, 57.64 86.91, 50.23 87.79 C42.81 88.66, 34.12 87.71, 27.16 84.52 C20.2 81.33, 13.13 75.46, 8.46 68.64 C3.79 61.82, -0.61 51.89, -0.85 43.6 C-1.1 35.31, -1.17 25.97, 7 18.89 C15.16 11.81, 37.47 2.96, 48.11 1.12 C58.75 -0.72, 71.04 7.35, 70.84 7.86 M30.55 2.21 C37.98 -0.35, 50.28 0.29, 58.34 3.04 C66.4 5.79, 73.76 11.95, 78.93 18.69 C84.09 25.43, 88.35 36.09, 89.32 43.47 C90.3 50.85, 88.86 55.92, 84.78 62.95 C80.7 69.98, 72.13 81.49, 64.84 85.64 C57.55 89.79, 49.13 88.65, 41.04 87.86 C32.96 87.06, 22.7 85.54, 16.32 80.88 C9.95 76.22, 5.43 66.96, 2.81 59.88 C0.19 52.81, -0.67 46.28, 0.61 38.45 C1.89 30.61, 5.13 19.12, 10.49 12.89 C15.84 6.66, 28.78 3.21, 32.76 1.08 C36.74 -1.06, 34.13 -0.54, 34.34 0.09" stroke="none" stroke-width="0" fill="#ebfbee"></path><path d="M54.64 3.7 C61.94 5.68, 69.85 11, 74.92 17.21 C80 23.43, 83.87 33.34, 85.09 40.97 C86.3 48.61, 85.6 56.22, 82.19 63.03 C78.79 69.85, 71.12 77.32, 64.67 81.85 C58.22 86.38, 51.25 90.42, 43.48 90.21 C35.7 89.99, 24.38 85.07, 18.02 80.57 C11.65 76.06, 8.44 70.47, 5.31 63.16 C2.17 55.84, -1.97 44.57, -0.8 36.67 C0.38 28.77, 6.64 21.87, 12.36 15.73 C18.07 9.59, 23.96 1.17, 33.49 -0.17 C43.02 -1.51, 61.72 4.24, 69.53 7.69 C77.34 11.13, 80.71 19.96, 80.35 20.5 M9.5 18.41 C14.13 12.66, 24.85 6.18, 32.91 3.39 C40.97 0.61, 50.43 0.07, 57.87 1.69 C65.32 3.32, 73.19 7.39, 77.59 13.16 C81.99 18.94, 83.48 28.01, 84.28 36.34 C85.08 44.67, 85.14 55.28, 82.39 63.17 C79.64 71.05, 74.09 79.55, 67.8 83.64 C61.5 87.72, 52.63 88.05, 44.62 87.67 C36.61 87.3, 26.24 85.47, 19.74 81.37 C13.25 77.27, 8.58 70.46, 5.64 63.07 C2.71 55.68, 1.08 44.73, 2.12 37 C3.17 29.28, 10.51 20.36, 11.89 16.71 C13.27 13.06, 9.74 15.08, 10.4 15.12" stroke="#2f9e44" stroke-width="2" fill="none"></path></g><g stroke-linecap="round" transform="translate(449.5 307.51595744680856) rotate(0 43.5 44.73404255319144)"><path d="M29.15 4.04 C36.09 0.69, 45.06 -0.33, 52.58 0.79 C60.09 1.92, 68.86 4.91, 74.25 10.8 C79.64 16.69, 83.1 27.7, 84.92 36.12 C86.74 44.54, 87.65 54.13, 85.16 61.33 C82.68 68.53, 76.49 74.31, 70.01 79.3 C63.53 84.29, 54.19 90.41, 46.28 91.29 C38.38 92.16, 29.56 88.62, 22.57 84.55 C15.58 80.49, 8.28 74.04, 4.37 66.88 C0.45 59.72, -1.47 49.51, -0.91 41.6 C-0.34 33.69, 0.77 26.28, 7.76 19.44 C14.75 12.59, 33.41 3.42, 41.03 0.54 C48.66 -2.33, 53.31 1.69, 53.5 2.19 M53.65 0.38 C61.11 2.31, 71.69 10.71, 77.4 16.95 C83.1 23.18, 87.1 30.72, 87.9 37.79 C88.7 44.86, 85.27 52.33, 82.19 59.37 C79.1 66.41, 75.95 74.98, 69.4 80.04 C62.85 85.1, 51.13 89.72, 42.88 89.72 C34.63 89.73, 26.09 84.63, 19.89 80.05 C13.68 75.48, 8.58 69.16, 5.64 62.29 C2.71 55.41, 1.63 46.12, 2.27 38.8 C2.91 31.49, 4.94 24.21, 9.46 18.4 C13.99 12.58, 22.31 6.8, 29.43 3.92 C36.55 1.04, 48.12 1.58, 52.19 1.1 C56.26 0.62, 53.14 0.72, 53.83 1.04" stroke="none" stroke-width="0" fill="#ebfbee"></path><path d="M19.62 7.24 C25.58 3.06, 35 1.68, 42.56 1.43 C50.12 1.19, 58.17 1.94, 64.99 5.76 C71.81 9.57, 80.03 17.09, 83.5 24.35 C86.97 31.61, 87.09 41.01, 85.8 49.31 C84.52 57.61, 80.86 68.06, 75.79 74.15 C70.71 80.24, 62.84 83.75, 55.33 85.86 C47.82 87.98, 37.94 88.85, 30.73 86.84 C23.52 84.82, 16.82 79.36, 12.06 73.77 C7.3 68.18, 3.52 61.23, 2.18 53.29 C0.83 45.35, -2.34 34.81, 4.01 26.13 C10.36 17.44, 30.23 4.84, 40.26 1.18 C50.29 -2.48, 63.74 3.49, 64.21 4.16 M31.78 3.93 C38.45 1.09, 46.94 -1.41, 54.07 0.07 C61.19 1.56, 69.41 6.28, 74.51 12.84 C79.61 19.4, 83.07 31.31, 84.68 39.46 C86.29 47.62, 87.27 54.41, 84.15 61.75 C81.04 69.09, 72.38 79.27, 65.97 83.51 C59.55 87.76, 53.31 87.28, 45.69 87.23 C38.07 87.18, 26.72 87, 20.25 83.21 C13.79 79.43, 10.09 71.47, 6.92 64.54 C3.75 57.61, 0.61 49.3, 1.24 41.62 C1.88 33.94, 6.48 25.17, 10.73 18.46 C14.98 11.75, 23.44 4.36, 26.73 1.37 C30.03 -1.62, 29.56 -0.09, 30.52 0.51" stroke="#2f9e44" stroke-width="2" fill="none"></path></g><g stroke-linecap="round" transform="translate(908.0992587222572 304.3703896880485) rotate(0 186 46.66666666666663)"><path d="M23.33 0 C96.81 -1.91, 176.31 -2.64, 348.67 0 C362.46 0.03, 374.89 4.63, 372 23.33 C368.95 39.41, 366.76 48.7, 372 70 C373.42 84.73, 361.49 96.77, 348.67 93.33 C234.15 93.63, 123.46 89.77, 23.33 93.33 C8.91 94.13, -5.09 83.93, 0 70 C1.14 58.86, -4.5 45.93, 0 23.33 C-5.39 11.9, 2.7 -4.67, 23.33 0" stroke="none" stroke-width="0" fill="#a5d8ff"></path><path d="M23.33 0 C105.59 3.49, 188.08 1.98, 348.67 0 M23.33 0 C130.77 2.31, 239.46 1.58, 348.67 0 M348.67 0 C362.94 2.28, 375.9 4.47, 372 23.33 M348.67 0 C364.44 0.27, 373.1 6.72, 372 23.33 M372 23.33 C375.65 37.48, 369.05 44.43, 372 70 M372 23.33 C372.26 37.8, 370.73 51.44, 372 70 M372 70 C371.96 87.44, 361.55 96.9, 348.67 93.33 M372 70 C376.12 82.83, 368.52 91.25, 348.67 93.33 M348.67 93.33 C220.47 92.66, 94.47 90.32, 23.33 93.33 M348.67 93.33 C239.02 93.73, 128.31 92.89, 23.33 93.33 M23.33 93.33 C4.75 94.89, -2.67 87.78, 0 70 M23.33 93.33 C7.67 96.56, -0.42 89.19, 0 70 M0 70 C2.65 54.23, -2.01 44.77, 0 23.33 M0 70 C-0.14 56.88, 1.31 41.99, 0 23.33 M0 23.33 C3.42 4.08, 4.22 3.4, 23.33 0 M0 23.33 C-3.1 9.56, 9.07 -2.23, 23.33 0" stroke="#1971c2" stroke-width="2" fill="none"></path></g><g stroke-linecap="round" transform="translate(1171.732419269486 351.32411270943044) rotate(0 35.70017278610453 36.71294364528478)"><path d="M46.18 1.75 C52.3 2.93, 58.47 7.6, 62.92 13.67 C67.37 19.74, 72.52 30.83, 72.91 38.18 C73.3 45.53, 69.49 51.91, 65.26 57.78 C61.03 63.65, 54.65 71.08, 47.51 73.39 C40.37 75.7, 29.12 74.05, 22.41 71.63 C15.69 69.21, 10.9 64.59, 7.22 58.86 C3.54 53.13, 0.1 44.57, 0.33 37.26 C0.56 29.94, 4.61 20.66, 8.59 14.96 C12.57 9.26, 16.98 5.15, 24.19 3.04 C31.4 0.93, 46.86 1.54, 51.86 2.31 C56.87 3.08, 54.36 6.69, 54.22 7.67 M8.55 10.5 C12.97 5.23, 21.88 -0.15, 29.3 -1.64 C36.72 -3.13, 47.19 -2.47, 53.06 1.54 C58.92 5.54, 61.87 15.57, 64.47 22.37 C67.08 29.18, 68.79 35.55, 68.67 42.38 C68.55 49.21, 68.27 58.51, 63.74 63.35 C59.21 68.18, 48.41 70.82, 41.49 71.4 C34.57 71.98, 28.46 69.32, 22.22 66.82 C15.97 64.31, 7.42 62.22, 4.04 56.36 C0.66 50.5, 1.01 39.11, 1.92 31.66 C2.84 24.21, 8.2 15.05, 9.53 11.69 C10.85 8.32, 8.95 11.05, 9.88 11.48" stroke="none" stroke-width="0" fill="#228be6"></path><path d="M11.75 10.56 C16.08 5.41, 22.43 -0.13, 29.57 -0.94 C36.72 -1.75, 48.49 1.77, 54.63 5.68 C60.77 9.59, 63.53 16.2, 66.4 22.52 C69.27 28.84, 72.67 36.78, 71.85 43.6 C71.02 50.42, 66.84 58.64, 61.46 63.45 C56.08 68.26, 47.04 71.72, 39.55 72.48 C32.06 73.24, 22.47 71.46, 16.53 68.02 C10.58 64.58, 6.48 58.23, 3.88 51.84 C1.27 45.44, -1.89 37.96, 0.88 29.64 C3.65 21.31, 14.99 6.92, 20.49 1.89 C25.99 -3.13, 33.39 -1.44, 33.88 -0.5 M45.85 0.64 C52.43 1.36, 59.41 6.98, 63.81 13.06 C68.22 19.14, 72.08 29.83, 72.29 37.14 C72.49 44.45, 69.15 51.47, 65.04 56.9 C60.92 62.33, 54.34 66.82, 47.6 69.73 C40.86 72.64, 30.96 76.35, 24.6 74.35 C18.24 72.36, 13.99 63.46, 9.42 57.76 C4.86 52.05, -1.95 47.11, -2.81 40.12 C-3.66 33.13, -0.41 22.31, 4.27 15.81 C8.96 9.31, 18.3 3.1, 25.3 1.1 C32.3 -0.9, 42.72 3.95, 46.27 3.8 C49.82 3.64, 46.9 0.41, 46.59 0.18" stroke="#1971c2" stroke-width="2" fill="none"></path></g><g stroke-linecap="round" transform="translate(1185.4048258684197 365.384388999114) rotate(0 22.02776618717087 22.65266735560124)"><path d="M27.8 1.5 C32.26 2.36, 37.08 5.89, 39.61 9.6 C42.15 13.31, 43.22 18.82, 43.01 23.76 C42.79 28.69, 41.43 35.71, 38.33 39.21 C35.22 42.72, 29.1 44.32, 24.37 44.79 C19.65 45.25, 14.05 44.7, 9.95 41.99 C5.86 39.29, 1.08 33.29, -0.18 28.54 C-1.44 23.8, 0.23 17.83, 2.41 13.51 C4.59 9.18, 8.38 4.65, 12.92 2.6 C17.47 0.56, 26.93 1.23, 29.69 1.24 C32.44 1.25, 29.66 2.46, 29.46 2.68 M18.49 -0.75 C22.62 -2.28, 28.1 -0.75, 31.98 1.7 C35.86 4.16, 39.97 9.5, 41.78 14 C43.58 18.51, 44.04 24.26, 42.8 28.74 C41.57 33.22, 38.62 37.91, 34.38 40.87 C30.15 43.83, 22.4 46.98, 17.39 46.49 C12.39 46, 7.04 41.71, 4.34 37.93 C1.64 34.15, 1.16 28.82, 1.2 23.8 C1.24 18.79, 1.68 11.95, 4.6 7.82 C7.52 3.69, 16.55 -0.03, 18.73 -0.98 C20.91 -1.93, 17.64 1.5, 17.66 2.12" stroke="none" stroke-width="0" fill="#a5d8ff"></path><path d="M18.81 -0.48 C23.34 -1.22, 31.21 1.48, 35.13 4.4 C39.06 7.32, 41.1 12.48, 42.37 17.04 C43.63 21.61, 44.37 27.47, 42.71 31.78 C41.05 36.1, 36.79 40.85, 32.41 42.94 C28.04 45.03, 21.33 45.52, 16.47 44.3 C11.62 43.07, 5.98 39.48, 3.29 35.58 C0.6 31.68, -0.17 25.68, 0.32 20.9 C0.82 16.12, 2.84 10.48, 6.28 6.9 C9.72 3.33, 18.1 0.63, 20.96 -0.54 C23.83 -1.72, 23.35 -0.73, 23.49 -0.16 M25.31 -0.14 C29.82 -0.11, 35.23 3.21, 38.43 7.03 C41.62 10.85, 44.37 17.88, 44.5 22.79 C44.63 27.7, 42.24 32.94, 39.22 36.49 C36.21 40.05, 31.1 42.89, 26.39 44.11 C21.68 45.33, 14.97 46.13, 10.98 43.83 C6.99 41.53, 4.35 34.85, 2.46 30.32 C0.57 25.79, -1.54 21.16, -0.38 16.64 C0.79 12.11, 5.04 6, 9.44 3.16 C13.85 0.32, 23.39 -0.2, 26.06 -0.42 C28.73 -0.63, 25.56 1.57, 25.46 1.89" stroke="#1971c2" stroke-width="2" fill="none"></path></g><g stroke-linecap="round" transform="translate(941.0657526028194 351.32411270943044) rotate(0 35.70017278610453 36.71294364528478)"><path d="M42.83 2.03 C49.51 3.49, 57.86 9.23, 62.71 14.46 C67.56 19.69, 71.5 26.66, 71.94 33.42 C72.37 40.19, 69.22 49.13, 65.33 55.04 C61.43 60.96, 54.9 65.85, 48.56 68.93 C42.23 72.01, 34.31 74.62, 27.34 73.51 C20.36 72.4, 10.97 67.84, 6.73 62.29 C2.5 56.75, 2.16 47.6, 1.92 40.24 C1.67 32.88, 1.75 24.57, 5.26 18.13 C8.78 11.7, 12.8 2.22, 23.01 1.64 C33.23 1.07, 58.86 8.23, 66.55 14.68 C74.24 21.14, 69.88 40, 69.17 40.37 M8.43 13.82 C11.23 7.56, 15.93 0.67, 22.05 -0.98 C28.18 -2.63, 37.87 0.92, 45.19 3.92 C52.52 6.92, 61.27 11.6, 66.01 17.01 C70.74 22.42, 73.46 29.81, 73.61 36.38 C73.76 42.96, 70.88 50.21, 66.9 56.46 C62.93 62.72, 56.87 71.72, 49.79 73.92 C42.71 76.12, 31.58 71.71, 24.43 69.67 C17.27 67.62, 10.94 67.3, 6.87 61.64 C2.8 55.98, -0.37 42.89, 0.01 35.71 C0.38 28.53, 8.12 22.27, 9.12 18.55 C10.12 14.83, 6.1 13.57, 5.99 13.41" stroke="none" stroke-width="0" fill="#228be6"></path><path d="M39.32 0.36 C45.85 0.15, 54.14 4.92, 59.08 9.67 C64.03 14.42, 67.56 22.34, 68.96 28.86 C70.36 35.38, 69.71 42.09, 67.49 48.8 C65.26 55.5, 61.12 64.97, 55.64 69.1 C50.16 73.22, 41.62 74.26, 34.61 73.54 C27.6 72.81, 19.26 69.47, 13.6 64.74 C7.93 60.02, 2.66 51.96, 0.61 45.2 C-1.44 38.44, -1.11 30.53, 1.32 24.17 C3.74 17.82, 8.05 10.89, 15.17 7.06 C22.3 3.24, 38.06 1.68, 44.07 1.22 C50.07 0.76, 51.02 3.84, 51.22 4.3 M46.24 2.5 C53.37 3.75, 59.74 6.69, 63.71 11.78 C67.67 16.87, 69.51 25.89, 70.04 33.04 C70.57 40.19, 70.4 48.02, 66.87 54.69 C63.33 61.36, 55.47 69.77, 48.82 73.08 C42.16 76.39, 33.67 77, 26.95 74.55 C20.22 72.09, 13 64.15, 8.46 58.35 C3.93 52.55, 0.52 46.97, -0.29 39.75 C-1.1 32.54, -0.54 21.12, 3.61 15.06 C7.77 9, 17.62 6.19, 24.64 3.4 C31.67 0.61, 42.85 -0.98, 45.78 -1.68 C48.7 -2.38, 42.26 -1.85, 42.2 -0.81" stroke="#1971c2" stroke-width="2" fill="none"></path></g><g stroke-linecap="round" transform="translate(954.738159201753 365.384388999114) rotate(0 22.02776618717087 22.65266735560124)"><path d="M23.72 -0.1 C28.02 0.1, 33.71 3.67, 37.07 7.29 C40.43 10.91, 43.33 16.93, 43.86 21.64 C44.39 26.34, 43.04 31.79, 40.25 35.53 C37.47 39.28, 31.82 42.97, 27.15 44.08 C22.47 45.19, 16.38 44.11, 12.2 42.19 C8.02 40.27, 4.09 36.69, 2.05 32.58 C0.01 28.47, -1.44 22.2, -0.03 17.51 C1.38 12.81, 5.84 7.1, 10.5 4.39 C15.16 1.67, 24.37 1.61, 27.91 1.23 C31.46 0.85, 31.72 1.88, 31.77 2.1 M14.22 -0.17 C18.49 -2.07, 26.02 -0.68, 30.68 1.13 C35.35 2.93, 40.23 6.62, 42.23 10.66 C44.22 14.71, 43.78 20.27, 42.65 25.38 C41.53 30.5, 38.83 37.83, 35.49 41.35 C32.16 44.86, 27.1 46.72, 22.64 46.49 C18.19 46.26, 12.33 43.44, 8.77 39.97 C5.2 36.49, 2.01 30.25, 1.27 25.64 C0.53 21.04, 2.15 16.57, 4.33 12.32 C6.51 8.08, 12.61 1.73, 14.34 0.19 C16.08 -1.34, 14.56 2.72, 14.75 3.12" stroke="none" stroke-width="0" fill="#a5d8ff"></path><path d="M32.74 3.35 C36.59 5.35, 40.22 10.62, 41.8 14.9 C43.39 19.18, 43.53 24.4, 42.23 29.02 C40.94 33.64, 37.83 39.91, 34.03 42.61 C30.23 45.3, 24.14 46.01, 19.45 45.18 C14.76 44.35, 9.19 41.33, 5.9 37.64 C2.61 33.95, 0.01 27.79, -0.29 23.04 C-0.59 18.28, 1.23 12.75, 4.08 9.09 C6.93 5.43, 11.4 1.64, 16.81 1.08 C22.22 0.52, 32.62 4.22, 36.52 5.71 C40.42 7.21, 40.28 9.82, 40.2 10.04 M25.7 0.89 C30.46 1.21, 35.54 3.22, 38.49 6.56 C41.44 9.9, 43.13 16.11, 43.39 20.94 C43.65 25.78, 42.81 31.42, 40.05 35.58 C37.29 39.74, 31.51 44.52, 26.83 45.91 C22.14 47.3, 16.11 46.51, 11.93 43.95 C7.76 41.38, 3.64 35.13, 1.77 30.51 C-0.09 25.89, -0.47 20.9, 0.75 16.23 C1.98 11.57, 4.94 5.13, 9.13 2.51 C13.32 -0.11, 23.18 1.04, 25.9 0.5 C28.61 -0.05, 25.81 -0.86, 25.41 -0.75" stroke="#1971c2" stroke-width="2" fill="none"></path></g><g stroke-linecap="round" transform="translate(987.3260083335408 253.92749336838165) rotate(359.9970527474656 90.77585953119444 32.499013080414926)"><path d="M16.25 0 C69.87 8.98, 113.99 -0.76, 165.3 0 C172.27 4.19, 181.21 -0.03, 181.55 16.25 C180.46 23.52, 182.03 26.38, 181.55 48.75 C185.25 61.25, 175.92 70.12, 165.3 65 C121.04 71.6, 76.1 72.96, 16.25 65 C4.02 62.9, -5.02 58.58, 0 48.75 C-4.21 37.96, -2.64 30.82, 0 16.25 C-4.17 7.92, 3.77 -0.29, 16.25 0" stroke="none" stroke-width="0" fill="#a5d8ff"></path><path d="M16.25 0 C73.19 -1.56, 123.69 -2.33, 165.3 0 M16.25 0 C54.58 1.49, 92.9 -1.25, 165.3 0 M165.3 0 C172.97 -3.24, 181.43 9.08, 181.55 16.25 M165.3 0 C177.98 -3.09, 180.66 9.62, 181.55 16.25 M181.55 16.25 C185.41 27.85, 181.6 41.12, 181.55 48.75 M181.55 16.25 C181.45 24.47, 179.71 33.77, 181.55 48.75 M181.55 48.75 C178.93 63.01, 173.74 66.83, 165.3 65 M181.55 48.75 C182.04 56.85, 177.58 66.03, 165.3 65 M165.3 65 C120.76 66.03, 72.46 63.11, 16.25 65 M165.3 65 C124.01 64.22, 87.36 63.4, 16.25 65 M16.25 65 C8.96 61.12, -0.14 57.37, 0 48.75 M16.25 65 C9.75 65.6, -1.57 55.96, 0 48.75 M0 48.75 C-2.5 38.02, -3.14 33.41, 0 16.25 M0 48.75 C-1.39 42.76, 1.67 36.35, 0 16.25 M0 16.25 C3.04 6.89, 7.83 -2.48, 16.25 0 M0 16.25 C-1.54 0.98, 6.44 2.87, 16.25 0" stroke="#1971c2" stroke-width="2" fill="none"></path></g><g stroke-linecap="round" transform="translate(1009.2423366056785 265.2181990616623) rotate(0.15413138552074726 66.55542537998213 19.497055152983933)"><path d="M9.75 0 C29.98 -7.5, 53.35 1.25, 123.36 0 C129.52 -5.45, 128.13 8.29, 133.11 9.75 C132.6 14, 136.53 26.89, 133.11 29.25 C132.9 40.87, 130.65 38.19, 123.36 38.99 C86.99 46.84, 40.38 39.25, 9.75 38.99 C-1.77 38, -2.55 38.57, 0 29.25 C-1.76 20.53, -3.7 16.96, 0 9.75 C-1.65 2.96, 8.16 -0.66, 9.75 0" stroke="none" stroke-width="0" fill="#e7f5ff"></path><path d="M9.75 0 C50.41 -0.31, 96.03 -1.24, 123.36 0 M9.75 0 C46.19 -2.98, 77.91 -3.55, 123.36 0 M123.36 0 C129.74 3.66, 134.72 0.57, 133.11 9.75 M123.36 0 C128.97 4.2, 134.93 3.37, 133.11 9.75 M133.11 9.75 C133.51 18.78, 131.61 18.93, 133.11 29.25 M133.11 9.75 C131.96 16.66, 131.92 23, 133.11 29.25 M133.11 29.25 C130.72 37.58, 130.28 36.62, 123.36 38.99 M133.11 29.25 C134.56 36.77, 130.35 38.99, 123.36 38.99 M123.36 38.99 C92.28 39.02, 60.26 39.49, 9.75 38.99 M123.36 38.99 C95.79 39.66, 68.2 37.85, 9.75 38.99 M9.75 38.99 C3.11 36.78, 3.76 36.27, 0 29.25 M9.75 38.99 C1.68 35.38, -2.32 36.06, 0 29.25 M0 29.25 C-2.77 23.67, -3.33 15.65, 0 9.75 M0 29.25 C1.8 24.61, 1.78 18.44, 0 9.75 M0 9.75 C2.41 0.77, 1.91 -3.86, 9.75 0 M0 9.75 C1.02 6.12, 5.07 -2.84, 9.75 0" stroke="#1971c2" stroke-width="2" fill="none"></path></g><g stroke-linecap="round" transform="translate(989.6211944796319 306.1801700588778) rotate(359.48920244494275 93.07743179591853 15.03028842655533)"><path d="M-3.21 1.22 L185.11 1.58 L188.98 30.88 L-1.43 27.35" stroke="none" stroke-width="0" fill="#a5d8ff"></path><path d="M-3.75 -3.74 C45.17 -5.17, 94 -4.68, 186.21 -2.01 M-0.47 0.13 C75.71 -2.83, 149.43 -2.62, 184.73 -1.27 M186.48 -2.44 C186.24 3.29, 182.86 11.52, 182.45 27.15 M184.25 -1.75 C188.49 7.52, 185.99 14.93, 187.81 30.32 M182.69 30.06 C121.28 33.48, 65.79 31.04, -2.05 33.54 M186.85 29.35 C130.98 25.6, 76.2 27.01, 1.38 30.15 M-2.31 28.24 C-2.28 23.34, -0.89 10.99, 1.65 2.07 M1.76 28.15 C-1.8 24.14, 1.15 15.76, -1.05 -1.75" stroke="transparent" stroke-width="2" fill="none"></path></g><g stroke-linecap="round"><g transform="translate(1082.7659253889237 264.3703896880485) rotate(0 -0.8242808691744585 59.46336726680383)"><path d="M0.71 1.55 C0.56 21.2, 1.17 96.48, 0.26 115.6 M-2.35 -0.08 C-2.77 20.23, -1.23 99.08, -0.75 119.01" stroke="#1971c2" stroke-width="2" fill="none"></path></g></g><mask></mask><g stroke-linecap="round"><g transform="translate(1082.9235395914313 382.9070224212446) rotate(0 37.4108012425404 0.5867786618570108)"><path d="M-2.07 -2.2 C11.12 -1.2, 63.54 2.62, 76.89 3.38 M2.01 2.77 C15.17 3.23, 62.88 0.37, 75.49 -0.53" stroke="#1971c2" stroke-width="2" fill="none"></path></g></g><mask></mask><g stroke-linecap="round"><g transform="translate(1160.0217908130503 382.24646840640276) rotate(0 3.007785058518266 -35.87371920093898)"><path d="M0.49 -1.84 C1.66 -13.76, 7.02 -59.32, 8.7 -71.45 M-2.69 3.33 C-2.04 -9.31, 4.39 -62.54, 6.48 -75.07" stroke="#1971c2" stroke-width="2" fill="none"></path></g></g><mask></mask><g stroke-linecap="round"><g transform="translate(1094.7659253889237 327.037056354715) rotate(0 8.333795792039837 0.33975689885073734)"><path d="M-0.23 -0.79 C2.8 -0.73, 15.51 -0.28, 18.48 0.22 M-1.81 1.4 C1.02 1.59, 13.81 1.36, 17.43 1.17" stroke="#1971c2" stroke-width="2" fill="none"></path></g></g><mask></mask><g stroke-linecap="round"><g transform="translate(1031.4325920555905 383.78361102619124) rotate(0 24.978226766725925 -0.21576887610831363)"><path d="M0.58 0.25 C8.8 0.27, 40.12 -0.57, 48.31 -0.78 M-0.57 -0.66 C8.1 -0.43, 42.23 0.28, 50.53 0.35" stroke="#1971c2" stroke-width="2" fill="none"></path></g></g><mask></mask><g stroke-linecap="round"><g transform="translate(1031.0914736637387 386.9107755556537) rotate(0 -20.97191102777913 -41.93368774478637)"><path d="M1.49 -0.97 C-5.76 -13.7, -36.51 -65.21, -43.44 -78.87 M-1.14 -3.96 C-7.58 -17.27, -31.8 -70.06, -38.54 -82.9" stroke="#1971c2" stroke-width="2" fill="none"></path></g></g><mask></mask><g stroke-linecap="round"><g transform="translate(1018.4321295968839 326.69729945586425) rotate(0 9.08085774754477 0.8378498855201997)"><path d="M-1.15 0.08 C1.97 0.25, 16.17 0.96, 19.31 1.16 M0.45 -0.93 C3.42 -0.58, 15.42 2.02, 18.7 2.6" stroke="#1971c2" stroke-width="2" fill="none"></path></g></g><mask></mask><g stroke-linecap="round" transform="translate(1151.2175757341902 267.17220955053244) rotate(0.15413138552074726 6.3580805110203755 18.249546117327156)"><path d="M3.18 0 C4.6 -0.09, 8.75 -0.33, 9.54 0 C9.53 0.57, 11.12 -2.2, 12.72 3.18 C15.51 16.53, 11 20.33, 12.72 33.32 C14.58 32.96, 9.68 34.76, 9.54 36.5 C6.52 37.31, 5.84 37.3, 3.18 36.5 C-1.65 33.39, 0 35.62, 0 33.32 C3.97 26.2, -2.33 13.94, 0 3.18 C1.13 -2.49, 1 1.29, 3.18 0" stroke="none" stroke-width="0" fill="#e7f5ff"></path><path d="M3.18 0 C5.42 -0.44, 6.49 -0.25, 9.54 0 M3.18 0 C4.89 0.2, 6.46 0.1, 9.54 0 M9.54 0 C10.61 1.2, 13.33 1.89, 12.72 3.18 M9.54 0 C12.5 1.7, 13.08 2.06, 12.72 3.18 M12.72 3.18 C11.61 15.57, 14.04 26.26, 12.72 33.32 M12.72 3.18 C12.37 10.7, 12.04 16.33, 12.72 33.32 M12.72 33.32 C12.16 35.56, 11.56 38.21, 9.54 36.5 M12.72 33.32 C14.17 34.92, 12.63 34.41, 9.54 36.5 M9.54 36.5 C7.89 36.07, 7.38 36.68, 3.18 36.5 M9.54 36.5 C8.36 36.8, 6.59 36.54, 3.18 36.5 M3.18 36.5 C1.82 35.85, 1.31 36.51, 0 33.32 M3.18 36.5 C0.44 37.72, -0.26 37.53, 0 33.32 M0 33.32 C1.38 22.76, -0.49 10.44, 0 3.18 M0 33.32 C-0.76 22.53, -0.55 10.93, 0 3.18 M0 3.18 C1.04 0.35, -0.71 1.78, 3.18 0 M0 3.18 C-0.44 2.99, 0.94 -1.62, 3.18 0" stroke="#1971c2" stroke-width="2" fill="none"></path></g></svg>