<svg width="3621" height="1447" xmlns="http://www.w3.org/2000/svg" xmlns:xlink="http://www.w3.org/1999/xlink" overflow="hidden"><defs><filter id="fx0" x="-10%" y="-10%" width="120%" height="120%" filterUnits="userSpaceOnUse" primitiveUnits="userSpaceOnUse"><feComponentTransfer color-interpolation-filters="sRGB"><feFuncR type="discrete" tableValues="0 0"/><feFuncG type="discrete" tableValues="0 0"/><feFuncB type="discrete" tableValues="0 0"/><feFuncA type="linear" slope="0.380392" intercept="0"/></feComponentTransfer><feGaussianBlur stdDeviation="3.05556 3.05556"/></filter><filter id="fx1" x="-10%" y="-10%" width="120%" height="120%" filterUnits="userSpaceOnUse" primitiveUnits="userSpaceOnUse"><feComponentTransfer color-interpolation-filters="sRGB"><feFuncR type="discrete" tableValues="0 0"/><feFuncG type="discrete" tableValues="0 0"/><feFuncB type="discrete" tableValues="0 0"/><feFuncA type="linear" slope="0.380392" intercept="0"/></feComponentTransfer><feGaussianBlur stdDeviation="3.05556 3.05556"/></filter><filter id="fx2" x="-10%" y="-10%" width="120%" height="120%" filterUnits="userSpaceOnUse" primitiveUnits="userSpaceOnUse"><feComponentTransfer color-interpolation-filters="sRGB"><feFuncR type="discrete" tableValues="0 0"/><feFuncG type="discrete" tableValues="0 0"/><feFuncB type="discrete" tableValues="0 0"/><feFuncA type="linear" slope="0.380392" intercept="0"/></feComponentTransfer><feGaussianBlur stdDeviation="3.05556 3.05556"/></filter><filter id="fx3" x="-10%" y="-10%" width="120%" height="120%" filterUnits="userSpaceOnUse" primitiveUnits="userSpaceOnUse"><feComponentTransfer color-interpolation-filters="sRGB"><feFuncR type="discrete" tableValues="0 0"/><feFuncG type="discrete" tableValues="0 0"/><feFuncB type="discrete" tableValues="0 0"/><feFuncA type="linear" slope="0.380392" intercept="0"/></feComponentTransfer><feGaussianBlur stdDeviation="3.05556 3.05556"/></filter><filter id="fx4" x="-10%" y="-10%" width="120%" height="120%" filterUnits="userSpaceOnUse" primitiveUnits="userSpaceOnUse"><feComponentTransfer color-interpolation-filters="sRGB"><feFuncR type="discrete" tableValues="0 0"/><feFuncG type="discrete" tableValues="0 0"/><feFuncB type="discrete" tableValues="0 0"/><feFuncA type="linear" slope="0.380392" intercept="0"/></feComponentTransfer><feGaussianBlur stdDeviation="3.05556 3.05556"/></filter><filter id="fx5" x="-10%" y="-10%" width="120%" height="120%" filterUnits="userSpaceOnUse" primitiveUnits="userSpaceOnUse"><feComponentTransfer color-interpolation-filters="sRGB"><feFuncR type="discrete" tableValues="0 0"/><feFuncG type="discrete" tableValues="0 0"/><feFuncB type="discrete" tableValues="0 0"/><feFuncA type="linear" slope="0.380392" intercept="0"/></feComponentTransfer><feGaussianBlur stdDeviation="3.05556 3.05556"/></filter><filter id="fx6" x="-10%" y="-10%" width="120%" height="120%" filterUnits="userSpaceOnUse" primitiveUnits="userSpaceOnUse"><feComponentTransfer color-interpolation-filters="sRGB"><feFuncR type="discrete" tableValues="0 0"/><feFuncG type="discrete" tableValues="0 0"/><feFuncB type="discrete" tableValues="0 0"/><feFuncA type="linear" slope="0.380392" intercept="0"/></feComponentTransfer><feGaussianBlur stdDeviation="3.05556 3.05556"/></filter><filter id="fx7" x="-10%" y="-10%" width="120%" height="120%" filterUnits="userSpaceOnUse" primitiveUnits="userSpaceOnUse"><feComponentTransfer color-interpolation-filters="sRGB"><feFuncR type="discrete" tableValues="0 0"/><feFuncG type="discrete" tableValues="0 0"/><feFuncB type="discrete" tableValues="0 0"/><feFuncA type="linear" slope="0.380392" intercept="0"/></feComponentTransfer><feGaussianBlur stdDeviation="3.05556 3.05556"/></filter><filter id="fx8" x="-10%" y="-10%" width="120%" height="120%" filterUnits="userSpaceOnUse" primitiveUnits="userSpaceOnUse"><feComponentTransfer color-interpolation-filters="sRGB"><feFuncR type="discrete" tableValues="0 0"/><feFuncG type="discrete" tableValues="0 0"/><feFuncB type="discrete" tableValues="0 0"/><feFuncA type="linear" slope="0.380392" intercept="0"/></feComponentTransfer><feGaussianBlur stdDeviation="3.05556 3.05556"/></filter><filter id="fx9" x="-10%" y="-10%" width="120%" height="120%" filterUnits="userSpaceOnUse" primitiveUnits="userSpaceOnUse"><feComponentTransfer color-interpolation-filters="sRGB"><feFuncR type="discrete" tableValues="0 0"/><feFuncG type="discrete" tableValues="0 0"/><feFuncB type="discrete" tableValues="0 0"/><feFuncA type="linear" slope="0.380392" intercept="0"/></feComponentTransfer><feGaussianBlur stdDeviation="3.05556 3.05556"/></filter><filter id="fx10" x="-10%" y="-10%" width="120%" height="120%" filterUnits="userSpaceOnUse" primitiveUnits="userSpaceOnUse"><feComponentTransfer color-interpolation-filters="sRGB"><feFuncR type="discrete" tableValues="0 0"/><feFuncG type="discrete" tableValues="0 0"/><feFuncB type="discrete" tableValues="0 0"/><feFuncA type="linear" slope="0.380392" intercept="0"/></feComponentTransfer><feGaussianBlur stdDeviation="3.05556 3.05556"/></filter><filter id="fx11" x="-10%" y="-10%" width="120%" height="120%" filterUnits="userSpaceOnUse" primitiveUnits="userSpaceOnUse"><feComponentTransfer color-interpolation-filters="sRGB"><feFuncR type="discrete" tableValues="0 0"/><feFuncG type="discrete" tableValues="0 0"/><feFuncB type="discrete" tableValues="0 0"/><feFuncA type="linear" slope="0.380392" intercept="0"/></feComponentTransfer><feGaussianBlur stdDeviation="3.05556 3.05556"/></filter><filter id="fx12" x="-10%" y="-10%" width="120%" height="120%" filterUnits="userSpaceOnUse" primitiveUnits="userSpaceOnUse"><feComponentTransfer color-interpolation-filters="sRGB"><feFuncR type="discrete" tableValues="0 0"/><feFuncG type="discrete" tableValues="0 0"/><feFuncB type="discrete" tableValues="0 0"/><feFuncA type="linear" slope="0.380392" intercept="0"/></feComponentTransfer><feGaussianBlur stdDeviation="3.05556 3.05556"/></filter><filter id="fx13" x="-10%" y="-10%" width="120%" height="120%" filterUnits="userSpaceOnUse" primitiveUnits="userSpaceOnUse"><feComponentTransfer color-interpolation-filters="sRGB"><feFuncR type="discrete" tableValues="0 0"/><feFuncG type="discrete" tableValues="0 0"/><feFuncB type="discrete" tableValues="0 0"/><feFuncA type="linear" slope="0.380392" intercept="0"/></feComponentTransfer><feGaussianBlur stdDeviation="3.05556 3.05556"/></filter><filter id="fx14" x="-10%" y="-10%" width="120%" height="120%" filterUnits="userSpaceOnUse" primitiveUnits="userSpaceOnUse"><feComponentTransfer color-interpolation-filters="sRGB"><feFuncR type="discrete" tableValues="0 0"/><feFuncG type="discrete" tableValues="0 0"/><feFuncB type="discrete" tableValues="0 0"/><feFuncA type="linear" slope="0.380392" intercept="0"/></feComponentTransfer><feGaussianBlur stdDeviation="3.05556 3.05556"/></filter><filter id="fx15" x="-10%" y="-10%" width="120%" height="120%" filterUnits="userSpaceOnUse" primitiveUnits="userSpaceOnUse"><feComponentTransfer color-interpolation-filters="sRGB"><feFuncR type="discrete" tableValues="0 0"/><feFuncG type="discrete" tableValues="0 0"/><feFuncB type="discrete" tableValues="0 0"/><feFuncA type="linear" slope="0.380392" intercept="0"/></feComponentTransfer><feGaussianBlur stdDeviation="3.05556 3.05556"/></filter><filter id="fx16" x="-10%" y="-10%" width="120%" height="120%" filterUnits="userSpaceOnUse" primitiveUnits="userSpaceOnUse"><feComponentTransfer color-interpolation-filters="sRGB"><feFuncR type="discrete" tableValues="0 0"/><feFuncG type="discrete" tableValues="0 0"/><feFuncB type="discrete" tableValues="0 0"/><feFuncA type="linear" slope="0.380392" intercept="0"/></feComponentTransfer><feGaussianBlur stdDeviation="3.05556 3.05556"/></filter><filter id="fx17" x="-10%" y="-10%" width="120%" height="120%" filterUnits="userSpaceOnUse" primitiveUnits="userSpaceOnUse"><feComponentTransfer color-interpolation-filters="sRGB"><feFuncR type="discrete" tableValues="0 0"/><feFuncG type="discrete" tableValues="0 0"/><feFuncB type="discrete" tableValues="0 0"/><feFuncA type="linear" slope="0.380392" intercept="0"/></feComponentTransfer><feGaussianBlur stdDeviation="3.05556 3.05556"/></filter><filter id="fx18" x="-10%" y="-10%" width="120%" height="120%" filterUnits="userSpaceOnUse" primitiveUnits="userSpaceOnUse"><feComponentTransfer color-interpolation-filters="sRGB"><feFuncR type="discrete" tableValues="0 0"/><feFuncG type="discrete" tableValues="0 0"/><feFuncB type="discrete" tableValues="0 0"/><feFuncA type="linear" slope="0.380392" intercept="0"/></feComponentTransfer><feGaussianBlur stdDeviation="3.05556 3.05556"/></filter><filter id="fx19" x="-10%" y="-10%" width="120%" height="120%" filterUnits="userSpaceOnUse" primitiveUnits="userSpaceOnUse"><feComponentTransfer color-interpolation-filters="sRGB"><feFuncR type="discrete" tableValues="0 0"/><feFuncG type="discrete" tableValues="0 0"/><feFuncB type="discrete" tableValues="0 0"/><feFuncA type="linear" slope="0.380392" intercept="0"/></feComponentTransfer><feGaussianBlur stdDeviation="3.05556 3.05556"/></filter><filter id="fx20" x="-10%" y="-10%" width="120%" height="120%" filterUnits="userSpaceOnUse" primitiveUnits="userSpaceOnUse"><feComponentTransfer color-interpolation-filters="sRGB"><feFuncR type="discrete" tableValues="0 0"/><feFuncG type="discrete" tableValues="0 0"/><feFuncB type="discrete" tableValues="0 0"/><feFuncA type="linear" slope="0.380392" intercept="0"/></feComponentTransfer><feGaussianBlur stdDeviation="3.05556 3.05556"/></filter><filter id="fx21" x="-10%" y="-10%" width="120%" height="120%" filterUnits="userSpaceOnUse" primitiveUnits="userSpaceOnUse"><feComponentTransfer color-interpolation-filters="sRGB"><feFuncR type="discrete" tableValues="0 0"/><feFuncG type="discrete" tableValues="0 0"/><feFuncB type="discrete" tableValues="0 0"/><feFuncA type="linear" slope="0.380392" intercept="0"/></feComponentTransfer><feGaussianBlur stdDeviation="3.05556 3.05556"/></filter><filter id="fx22" x="-10%" y="-10%" width="120%" height="120%" filterUnits="userSpaceOnUse" primitiveUnits="userSpaceOnUse"><feComponentTransfer color-interpolation-filters="sRGB"><feFuncR type="discrete" tableValues="0 0"/><feFuncG type="discrete" tableValues="0 0"/><feFuncB type="discrete" tableValues="0 0"/><feFuncA type="linear" slope="0.380392" intercept="0"/></feComponentTransfer><feGaussianBlur stdDeviation="3.05556 3.05556"/></filter><clipPath id="clip23"><rect x="440" y="545" width="3621" height="1447"/></clipPath><clipPath id="clip24"><rect x="1" y="35" width="2418" height="514"/></clipPath><clipPath id="clip25"><rect x="0" y="0" width="2437" height="548"/></clipPath><clipPath id="clip26"><rect x="-2" y="1" width="368" height="202"/></clipPath><clipPath id="clip27"><rect x="0" y="0" width="400" height="219"/></clipPath><clipPath id="clip28"><rect x="-2" y="1" width="363" height="215"/></clipPath><clipPath id="clip29"><rect x="0" y="0" width="395" height="233"/></clipPath><clipPath id="clip30"><rect x="6" y="18" width="466" height="57"/></clipPath><clipPath id="clip31"><rect x="0" y="0" width="505" height="92"/></clipPath><clipPath id="clip32"><rect x="-2" y="15" width="321" height="60"/></clipPath><clipPath id="clip33"><rect x="0" y="0" width="352" height="91"/></clipPath><clipPath id="clip34"><path d="M450.5 1076.5 450.5 1579.5 921.462 1579.5 921.462 1076.5ZM440 545 4061 545 4061 1992 440 1992Z" fill-rule="evenodd" clip-rule="evenodd"/></clipPath><clipPath id="clip35"><rect x="1" y="-2" width="494" height="529"/></clipPath><clipPath id="clip36"><rect x="0" y="0" width="494" height="526"/></clipPath><clipPath id="clip37"><rect x="35" y="25" width="316" height="208"/></clipPath><clipPath id="clip38"><rect x="0" y="0" width="387" height="269"/></clipPath><clipPath id="clip39"><path d="M1496.5 1049.5 1496.5 1308.5 1941.5 1308.5 1941.5 1049.5ZM440 545 4061 545 4061 1992 440 1992Z" fill-rule="evenodd" clip-rule="evenodd"/></clipPath><clipPath id="clip40"><rect x="-2" y="-2" width="472" height="284"/></clipPath><clipPath id="clip41"><rect x="0" y="0" width="468" height="282"/></clipPath><clipPath id="clip42"><rect x="35" y="38" width="126" height="64"/></clipPath><clipPath id="clip43"><rect x="0" y="0" width="196" height="138"/></clipPath><clipPath id="clip44"><path d="M1496.5 1389.5 1496.5 1648.5 1941.5 1648.5 1941.5 1389.5ZM440 545 4061 545 4061 1992 440 1992Z" fill-rule="evenodd" clip-rule="evenodd"/></clipPath><clipPath id="clip45"><rect x="-2" y="-2" width="472" height="284"/></clipPath><clipPath id="clip46"><rect x="0" y="0" width="468" height="282"/></clipPath><clipPath id="clip47"><rect x="35" y="38" width="92" height="52"/></clipPath><clipPath id="clip48"><rect x="0" y="0" width="162" height="137"/></clipPath><clipPath id="clip49"><path d="M2149.5 1049.5 2149.5 1308.5 2595.5 1308.5 2595.5 1049.5ZM440 545 4061 545 4061 1992 440 1992Z" fill-rule="evenodd" clip-rule="evenodd"/></clipPath><clipPath id="clip50"><rect x="-2" y="-2" width="472" height="284"/></clipPath><clipPath id="clip51"><rect x="0" y="0" width="469" height="282"/></clipPath><clipPath id="clip52"><rect x="38" y="28" width="155" height="62"/></clipPath><clipPath id="clip53"><rect x="0" y="0" width="230" height="138"/></clipPath><clipPath id="clip54"><path d="M2149.5 1389.5 2149.5 1648.5 2595.5 1648.5 2595.5 1389.5ZM440 545 4061 545 4061 1992 440 1992Z" fill-rule="evenodd" clip-rule="evenodd"/></clipPath><clipPath id="clip55"><rect x="-2" y="-2" width="472" height="284"/></clipPath><clipPath id="clip56"><rect x="0" y="0" width="469" height="282"/></clipPath><clipPath id="clip57"><rect x="38" y="25" width="195" height="65"/></clipPath><clipPath id="clip58"><rect x="0" y="0" width="266" height="137"/></clipPath><clipPath id="clip59"><path d="M2838.5 1226.5 2838.5 1486.5 3283.5 1486.5 3283.5 1226.5ZM440 545 4061 545 4061 1992 440 1992Z" fill-rule="evenodd" clip-rule="evenodd"/></clipPath><clipPath id="clip60"><rect x="-2" y="-2" width="472" height="287"/></clipPath><clipPath id="clip61"><rect x="0" y="0" width="468" height="283"/></clipPath><clipPath id="clip62"><rect x="35" y="25" width="223" height="74"/></clipPath><clipPath id="clip63"><rect x="0" y="0" width="295" height="137"/></clipPath><clipPath id="clip64"><path d="M3579.5 1105.5 3579.5 1607.5 4050.5 1607.5 4050.5 1105.5ZM440 545 4061 545 4061 1992 440 1992Z" fill-rule="evenodd" clip-rule="evenodd"/></clipPath><clipPath id="clip65"><rect x="-2" y="-2" width="497" height="529"/></clipPath><clipPath id="clip66"><rect x="0" y="0" width="494" height="525"/></clipPath><clipPath id="clip67"><rect x="35" y="25" width="368" height="213"/></clipPath><clipPath id="clip68"><rect x="0" y="0" width="441" height="270"/></clipPath><clipPath id="clip69"><path d="M2056.5 550.5 2056.5 850.5 2703.5 850.5 2703.5 550.5ZM440 545 4061 545 4061 1992 440 1992Z" fill-rule="evenodd" clip-rule="evenodd"/></clipPath><clipPath id="clip70"><rect x="1" y="-2" width="672" height="326"/></clipPath><clipPath id="clip71"><rect x="0" y="0" width="670" height="323"/></clipPath><clipPath id="clip72"><rect x="28" y="25" width="509" height="198"/></clipPath><clipPath id="clip73"><rect x="0" y="0" width="563" height="253"/></clipPath><clipPath id="clip74"><rect x="6" y="18" width="158" height="57"/></clipPath><clipPath id="clip75"><rect x="0" y="0" width="197" height="92"/></clipPath><clipPath id="clip76"><rect x="18" y="1" width="57" height="118"/></clipPath><clipPath id="clip77"><rect x="0" y="0" width="91" height="154"/></clipPath></defs><g clip-path="url(#clip23)" transform="translate(-440 -545)"><g clip-path="url(#clip24)" filter="url(#fx0)" transform="translate(670 1445)"><g clip-path="url(#clip25)"><path d="M2396.96 73.5831 2396.96 531.609C2396.96 534.646 2394.49 537.109 2391.46 537.109L16.5 537.109C13.4624 537.109 11 534.646 11 531.609L11 139.001 22 139.001 22 531.609 16.5 526.109 2391.46 526.109 2385.96 531.609 2385.96 73.5831ZM2374.96 79.0833 2391.46 46.0833 2407.96 79.0833Z"/></g></g><path d="M3067.19 1515.15 3067.19 1972.03C3067.19 1975.19 3064.62 1977.75 3061.46 1977.75L686.5 1977.75C683.336 1977.75 680.771 1975.19 680.771 1972.03L680.771 1579.42 692.229 1579.42 692.229 1972.03 686.5 1966.3 3061.46 1966.3 3055.73 1972.03 3055.73 1515.15ZM3044.27 1520.87 3061.46 1486.5 3078.64 1520.87Z"/><g clip-path="url(#clip26)" filter="url(#fx1)" transform="translate(1702 1010)"><g clip-path="url(#clip27)"><path d="M0 5.5-27.5 5.5-22 0-22 280.487-27.5 274.987 129.729 274.987C132.766 274.987 135.229 277.449 135.229 280.487L135.229 310.811 124.229 310.811 124.229 280.487 129.729 285.987-27.5 285.987C-30.5376 285.987-33 283.524-33 280.487L-33 0C-33-3.03757-30.5376-5.5-27.5-5.5L0-5.5ZM146.229 305.311 129.729 338.311 113.229 305.311Z" transform="matrix(1.83697e-16 1 1 -1.83697e-16 16.4998 44.0835)"/></g></g><path d="M0 5.72917-27.5 5.72917-21.7708 0-21.7708 280.487-27.5 274.758 129.729 274.758C132.893 274.758 135.458 277.323 135.458 280.487L135.458 309.665 124 309.665 124 280.487 129.729 286.216-27.5 286.216C-30.6641 286.216-33.2292 283.651-33.2292 280.487L-33.2292 0C-33.2292-3.16413-30.6641-5.72917-27.5-5.72917L0-5.72917ZM146.916 303.936 129.729 338.311 112.541 303.936Z" transform="matrix(1.83697e-16 1 1 -1.83697e-16 1718.5 1049.5)"/><g clip-path="url(#clip28)" filter="url(#fx2)" transform="translate(1702 1350)"><g clip-path="url(#clip29)"><path d="M321.973 192.892 294.319 192.892C291.282 192.892 288.819 190.43 288.819 187.392L288.819 16.5838 294.319 22.0838 16.5 22.0838 22 16.5838 22 44.0833 11 44.0833 11 16.5838C11 13.5463 13.4624 11.0838 16.5 11.0838L294.319 11.0838C297.357 11.0838 299.819 13.5463 299.819 16.5838L299.819 187.392 294.319 181.892 321.973 181.892ZM316.473 170.892 349.473 187.392 316.473 203.892Z"/></g></g><path d="M2022.83 1538.54 1996.32 1538.54C1993.16 1538.54 1990.59 1535.97 1990.59 1532.81L1990.59 1362 1996.32 1367.73 1718.5 1367.73 1724.23 1362 1724.23 1389.5 1712.77 1389.5 1712.77 1362C1712.77 1358.84 1715.34 1356.27 1718.5 1356.27L1996.32 1356.27C1999.48 1356.27 2002.05 1358.84 2002.05 1362L2002.05 1532.81 1996.32 1527.08 2022.83 1527.08ZM2017.1 1515.62 2051.47 1532.81 2017.1 1550Z"/><g clip-path="url(#clip30)" filter="url(#fx3)" transform="translate(905 1286)"><g clip-path="url(#clip31)"><path d="M27.4999-5.49998 442.811-5.49964 442.811 5.50036 27.4999 5.50002ZM33 16.5 0 0 33-16.5Z" transform="matrix(-1 0 0 1 459.312 46.0834)"/></g></g><path d="M28.6458-5.72914 442.811-5.72881 442.811 5.72953 28.6458 5.72919ZM34.375 17.1875 0 0 34.375-17.1875Z" transform="matrix(-1 0 0 1 1364.31 1327.5)"/><g clip-path="url(#clip32)" filter="url(#fx4)" transform="translate(3273 1316)"><g clip-path="url(#clip33)"><path d="M10.5 39.5833 158.573 39.5833C161.611 39.5833 164.073 42.0457 164.073 45.0833L164.073 45.1262 158.573 39.6262 279.146 39.6262 279.146 50.6262 158.573 50.6262C155.536 50.6262 153.073 48.1638 153.073 45.1262L153.073 45.0833 158.573 50.5833 10.5 50.5833ZM273.646 28.6262 306.646 45.1262 273.646 61.6262Z"/></g></g><path d="M3283.5 1350.77 3431.57 1350.77C3434.74 1350.77 3437.3 1353.34 3437.3 1356.5L3437.3 1356.54 3431.57 1350.81 3551 1350.81 3551 1362.27 3431.57 1362.27C3428.41 1362.27 3425.84 1359.71 3425.84 1356.54L3425.84 1356.5 3431.57 1362.23 3283.5 1362.23ZM3545.27 1339.36 3579.65 1356.54 3545.27 1373.73Z"/><rect x="1364.5" y="947.5" width="648" height="761" stroke="#008564" stroke-width="4.58333" stroke-linejoin="round" stroke-miterlimit="10" fill="#CBE4C9"/><rect x="2055.5" y="947.5" width="648" height="761" stroke="#008564" stroke-width="4.58333" stroke-linejoin="round" stroke-miterlimit="10" fill="#CBE4C9"/><g clip-path="url(#clip34)"><g clip-path="url(#clip35)" filter="url(#fx5)" transform="translate(439 1070)"><g clip-path="url(#clip36)"><rect x="11.5002" y="11.0835" width="470.961" height="503" stroke="#000000" stroke-linejoin="round" stroke-miterlimit="10" fill="#D7EDFF"/></g></g><g clip-path="url(#clip37)" filter="url(#fx6)" transform="translate(492 1206)"><g clip-path="url(#clip38)"><path d="M5.225 0 5.225-38.5 18.755-38.5C23.1183-38.5 26.5008-37.5192 28.9025-35.5575 31.3042-33.5958 32.505-30.8183 32.505-27.225L32.505-25.905C32.505-22.3117 31.2858-19.525 28.8475-17.545 26.4092-15.565 23.045-14.575 18.755-14.575L9.79-14.575 9.79 0ZM9.79-18.48 18.7-18.48C21.6333-18.48 23.9067-19.085 25.52-20.295 27.1333-21.505 27.94-23.3383 27.94-25.795L27.94-27.28C27.94-29.7367 27.1333-31.57 25.52-32.78 23.9067-33.99 21.6333-34.595 18.7-34.595L9.79-34.595ZM38.9308 11 38.9308 7.315 40.4708 7.315C42.1942 7.315 43.505 6.93 44.4033 6.16 45.3017 5.39 46.1542 3.905 46.9608 1.705L47.5658 0.055 36.5108-27.995 41.1858-27.995 49.8758-4.62 58.1808-27.995 62.6358-27.995 51.3058 1.87C50.4258 4.25333 49.5275 6.11417 48.6108 7.4525 47.6942 8.79083 46.6308 9.71667 45.4208 10.23 44.2108 10.7433 42.7075 11 40.9108 11ZM80.6987 0.22C77.4721 0.22 75.1804-0.531667 73.8237-2.035 72.4671-3.53833 71.7887-5.59167 71.7887-8.195L71.7887-24.365 65.7937-24.365 65.7937-27.995 71.7887-27.995 71.7887-36.465 76.1888-36.465 76.1888-27.995 85.8687-27.995 85.2637-24.365 76.1888-24.365 76.1888-8.47C76.1888-6.71 76.5921-5.43583 77.3988-4.6475 78.2054-3.85917 79.4521-3.465 81.1387-3.465L85.8687-3.465 85.8687 0.22ZM92.5833 0 92.5833-40.15 96.9833-40.15 96.9833-23.65C97.79-25.1533 98.9542-26.3633 100.476-27.28 101.997-28.1967 103.84-28.655 106.003-28.655L106.498-28.655C109.688-28.655 112.246-27.6833 114.171-25.74 116.096-23.7967 117.058-20.955 117.058-17.215L117.058 0 112.658 0 112.658-16.5C112.658-19.25 112.053-21.3308 110.843-22.7425 109.633-24.1542 107.892-24.86 105.618-24.86L105.233-24.86C103.767-24.86 102.41-24.5025 101.163-23.7875 99.9167-23.0725 98.9083-22.0092 98.1383-20.5975 97.3683-19.1858 96.9833-17.4167 96.9833-15.29L96.9833 0ZM136.46 0.66C134.04 0.66 131.867 0.119167 129.942-0.9625 128.017-2.04417 126.495-3.61167 125.377-5.665 124.259-7.71833 123.7-10.175 123.7-13.035L123.7-14.96C123.7-17.82 124.259-20.2767 125.377-22.33 126.495-24.3833 128.017-25.9508 129.942-27.0325 131.867-28.1142 134.04-28.655 136.46-28.655L137.01-28.655C139.466-28.655 141.657-28.1142 143.582-27.0325 145.507-25.9508 147.029-24.3925 148.147-22.3575 149.265-20.3225 149.825-17.875 149.825-15.015L149.825-12.98C149.825-10.12 149.265-7.6725 148.147-5.6375 147.029-3.6025 145.507-2.04417 143.582-0.9625 141.657 0.119167 139.466 0.66 137.01 0.66ZM136.515-3.135 136.955-3.135C139.338-3.135 141.345-3.96 142.977-5.61 144.609-7.26 145.425-9.71667 145.425-12.98L145.425-15.015C145.425-18.2783 144.609-20.735 142.977-22.385 141.345-24.035 139.338-24.86 136.955-24.86L136.515-24.86C134.168-24.86 132.179-24.035 130.547-22.385 128.915-20.735 128.1-18.2783 128.1-15.015L128.1-12.98C128.1-9.71667 128.915-7.26 130.547-5.61 132.179-3.96 134.168-3.135 136.515-3.135ZM156.75 0 156.75-27.995 160.765-27.995 160.765-22.99C161.535-24.6767 162.708-26.0425 164.285-27.0875 165.862-28.1325 167.823-28.655 170.17-28.655L170.665-28.655C173.855-28.655 176.413-27.6833 178.338-25.74 180.263-23.7967 181.225-20.955 181.225-17.215L181.225 0 176.825 0 176.825-16.5C176.825-19.25 176.22-21.3308 175.01-22.7425 173.8-24.1542 172.058-24.86 169.785-24.86L169.4-24.86C167.933-24.86 166.577-24.5025 165.33-23.7875 164.083-23.0725 163.075-22.0092 162.305-20.5975 161.535-19.1858 161.15-17.4167 161.15-15.29L161.15 0Z" transform="matrix(1 0 0 1 101.04 78)"/><path d="M26.565 11.715C23.1183 11.715 19.9558 11.165 17.0775 10.065 14.1992 8.965 11.715 7.41583 9.625 5.4175 7.535 3.41917 5.92167 1.05417 4.785-1.6775 3.64833-4.40917 3.08-7.425 3.08-10.725L3.08-13.31C3.08-16.7933 3.67583-19.9833 4.8675-22.88 6.05917-25.7767 7.74583-28.2883 9.9275-30.415 12.1092-32.5417 14.7033-34.1917 17.71-35.365 20.7167-36.5383 24.0167-37.125 27.61-37.125L28.545-37.125C32.9817-37.125 36.8867-36.2542 40.26-34.5125 43.6333-32.7708 46.2733-30.3508 48.18-27.2525 50.0867-24.1542 51.04-20.57 51.04-16.5L51.04-14.96C51.04-12.2467 50.5817-9.80833 49.665-7.645 48.7483-5.48167 47.5108-3.7675 45.9525-2.5025 44.3942-1.2375 42.625-0.605 40.645-0.605L40.04-0.605C38.3167-0.605 36.9142-1.045 35.8325-1.925 34.7508-2.805 34.1-4.03333 33.88-5.61 33.1833-4.03333 32.1383-2.805 30.745-1.925 29.3517-1.045 27.7017-0.605 25.795-0.605L25.355-0.605C23.2283-0.605 21.3675-1.08167 19.7725-2.035 18.1775-2.98833 16.9308-4.33583 16.0325-6.0775 15.1342-7.81917 14.685-9.845 14.685-12.155L14.685-13.64C14.685-15.9133 15.1433-17.9117 16.06-19.635 16.9767-21.3583 18.2417-22.7058 19.855-23.6775 21.4683-24.6492 23.32-25.135 25.41-25.135L25.85-25.135C27.7567-25.135 29.4067-24.7133 30.8-23.87 32.1933-23.0267 33.22-21.7983 33.88-20.185L33.88-24.53 37.51-24.53 37.51-7.7C37.51-5.28 38.4267-4.07 40.26-4.07L40.59-4.07C41.8367-4.07 42.9367-4.54667 43.89-5.5 44.8433-6.45333 45.595-7.755 46.145-9.405 46.695-11.055 46.97-12.9067 46.97-14.96L46.97-16.5C46.97-19.9467 46.2092-22.9258 44.6875-25.4375 43.1658-27.9492 41.0208-29.9017 38.2525-31.295 35.4842-32.6883 32.23-33.385 28.49-33.385L27.555-33.385C23.5217-33.385 19.9833-32.5508 16.94-30.8825 13.8967-29.2142 11.5225-26.8767 9.8175-23.87 8.1125-20.8633 7.26-17.3433 7.26-13.31L7.26-10.725C7.26-7.05833 8.07583-3.81333 9.7075-0.99 11.3392 1.83333 13.6217 4.0425 16.555 5.6375 19.4883 7.2325 22.8617 8.03 26.675 8.03L27.61 8.03C29.3333 8.03 31.0933 7.80083 32.89 7.3425 34.6867 6.88417 36.2267 6.27 37.51 5.5L39.16 9.02C35.7133 10.8167 31.845 11.715 27.555 11.715ZM25.96-4.125 26.4-4.125C28.6367-4.125 30.3783-4.85833 31.625-6.325 32.8717-7.79167 33.495-9.79 33.495-12.32L33.495-13.42C33.495-15.9867 32.8717-17.9942 31.625-19.4425 30.3783-20.8908 28.6367-21.615 26.4-21.615L25.96-21.615C23.8333-21.615 22.11-20.8725 20.79-19.3875 19.47-17.9025 18.81-15.9683 18.81-13.585L18.81-12.155C18.81-9.69833 19.4608-7.74583 20.7625-6.2975 22.0642-4.84917 23.7967-4.125 25.96-4.125ZM55.3942-27.995 60.0142-27.995 66.8342-5.94 73.4342-27.995 77.3392-27.995 83.8842-5.995 90.7042-27.995 95.0492-27.995 85.8092 0 81.9042 0 75.2492-21.945 68.5942 0 64.6892 0ZM101.223 11 101.223-27.995 105.238-27.995 105.238-23.21C106.081-24.86 107.3-26.18 108.895-27.17 110.49-28.16 112.425-28.655 114.698-28.655L115.083-28.655C117.43-28.655 119.501-28.1325 121.298-27.0875 123.095-26.0425 124.515-24.5025 125.56-22.4675 126.605-20.4325 127.128-17.9483 127.128-15.015L127.128-12.98C127.128-10.0467 126.605-7.5625 125.56-5.5275 124.515-3.4925 123.095-1.9525 121.298-0.9075 119.501 0.1375 117.43 0.66 115.083 0.66L114.698 0.66C112.608 0.66 110.784 0.22 109.225-0.66 107.667-1.54 106.466-2.73167 105.623-4.235L105.623 11ZM113.873-3.135 114.368-3.135C116.751-3.135 118.74-3.94167 120.335-5.555 121.93-7.16833 122.728-9.66167 122.728-13.035L122.728-15.015C122.728-18.3883 121.93-20.8725 120.335-22.4675 118.74-24.0625 116.751-24.86 114.368-24.86L113.873-24.86C112.37-24.86 110.985-24.5117 109.72-23.815 108.455-23.1183 107.456-22.0367 106.723-20.57 105.99-19.1033 105.623-17.1967 105.623-14.85L105.623-13.145C105.623-9.66167 106.43-7.1225 108.043-5.5275 109.656-3.9325 111.6-3.135 113.873-3.135ZM132.147 0 132.147-5.555 137.317-5.555 137.317 0ZM145.521 0 145.521-40.15 149.921-40.15 149.921-15.345 163.781-27.995 169.556-27.995 157.841-17.38 170.436 0 165.101 0 154.596-14.685 149.921-10.45 149.921 0ZM186.83 0.66C182.98 0.66 179.937-0.531667 177.7-2.915 175.464-5.29833 174.345-8.65333 174.345-12.98L174.345-15.015C174.345-17.8383 174.859-20.2675 175.885-22.3025 176.912-24.3375 178.37-25.905 180.258-27.005 182.146-28.105 184.337-28.655 186.83-28.655L187.27-28.655C189.727-28.655 191.845-28.1417 193.623-27.115 195.401-26.0883 196.785-24.6308 197.775-22.7425 198.765-20.8542 199.26-18.645 199.26-16.115L199.26-12.76 178.69-12.76C178.727-9.49667 179.47-7.05833 180.918-5.445 182.366-3.83167 184.337-3.025 186.83-3.025L187.655-3.025C189.489-3.025 190.983-3.355 192.138-4.015 193.293-4.675 194.219-5.62833 194.915-6.875L198.27-4.84C197.317-3.15333 195.933-1.815 194.118-0.825 192.303 0.165 190.149 0.66 187.655 0.66ZM178.745-16.115 194.915-16.115 194.915-16.72C194.915-19.4333 194.228-21.4867 192.853-22.88 191.478-24.2733 189.617-24.97 187.27-24.97L186.83-24.97C184.557-24.97 182.678-24.2183 181.193-22.715 179.708-21.2117 178.892-19.0117 178.745-16.115ZM206.25 0 206.25-27.995 210.265-27.995 210.265-22.11C210.925-23.9433 211.924-25.4192 213.262-26.5375 214.601-27.6558 216.553-28.215 219.12-28.215L221.705-28.215 221.705-24.2 218.9-24.2C216.517-24.2 214.546-23.3842 212.987-21.7525 211.429-20.1208 210.65-17.6183 210.65-14.245L210.65 0ZM228.021 0 228.021-27.995 232.036-27.995 232.036-22.99C232.806-24.6767 233.979-26.0425 235.556-27.0875 237.132-28.1325 239.094-28.655 241.441-28.655L241.936-28.655C245.126-28.655 247.683-27.6833 249.608-25.74 251.533-23.7967 252.496-20.955 252.496-17.215L252.496 0 248.096 0 248.096-16.5C248.096-19.25 247.491-21.3308 246.281-22.7425 245.071-24.1542 243.329-24.86 241.056-24.86L240.671-24.86C239.204-24.86 237.847-24.5025 236.601-23.7875 235.354-23.0725 234.346-22.0092 233.576-20.5975 232.806-19.1858 232.421-17.4167 232.421-15.29L232.421 0ZM271.622 0.66C267.772 0.66 264.729-0.531667 262.492-2.915 260.255-5.29833 259.137-8.65333 259.137-12.98L259.137-15.015C259.137-17.8383 259.65-20.2675 260.677-22.3025 261.704-24.3375 263.161-25.905 265.05-27.005 266.938-28.105 269.129-28.655 271.622-28.655L272.062-28.655C274.519-28.655 276.636-28.1417 278.415-27.115 280.193-26.0883 281.577-24.6308 282.567-22.7425 283.557-20.8542 284.052-18.645 284.052-16.115L284.052-12.76 263.482-12.76C263.519-9.49667 264.261-7.05833 265.71-5.445 267.158-3.83167 269.129-3.025 271.622-3.025L272.447-3.025C274.28-3.025 275.775-3.355 276.93-4.015 278.085-4.675 279.01-5.62833 279.707-6.875L283.062-4.84C282.109-3.15333 280.725-1.815 278.91-0.825 277.095 0.165 274.94 0.66 272.447 0.66ZM263.537-16.115 279.707-16.115 279.707-16.72C279.707-19.4333 279.02-21.4867 277.645-22.88 276.27-24.2733 274.409-24.97 272.062-24.97L271.622-24.97C269.349-24.97 267.47-24.2183 265.985-22.715 264.5-21.2117 263.684-19.0117 263.537-16.115ZM291.042 0 291.042-40.15 295.442-40.15 295.442 0Z" transform="matrix(1 0 0 1 43.6341 210)"/></g></g></g><rect x="450.5" y="1076.5" width="470.961" height="503" stroke="#000000" stroke-width="1.14583" stroke-linejoin="round" stroke-miterlimit="10" fill="#D7EDFF"/><text font-family="NVIDIA Sans,NVIDIA Sans_MSFontService,sans-serif" font-weight="400" font-size="55" transform="matrix(1 0 0 1 593.04 1279)">Python<tspan font-size="55" x="-57.4063" y="132">@wp.kernel</tspan></text><g clip-path="url(#clip39)"><g clip-path="url(#clip40)" filter="url(#fx7)" transform="translate(1485 1043)"><g clip-path="url(#clip41)"><rect x="11.4999" y="11.0833" width="445" height="259" stroke="#000000" stroke-linejoin="round" stroke-miterlimit="10" fill="#D7EDFF"/></g></g><g clip-path="url(#clip42)" filter="url(#fx8)" transform="translate(1620 1122)"><g clip-path="url(#clip43)"><path d="M3.63 0 3.63-5.555 8.8-5.555 8.8 0ZM28.3342 0.66C24.4108 0.66 21.285-0.531667 18.9567-2.915 16.6283-5.29833 15.4642-8.65333 15.4642-12.98L15.4642-15.015C15.4642-17.875 16.005-20.3225 17.0867-22.3575 18.1683-24.3925 19.6808-25.9508 21.6242-27.0325 23.5675-28.1142 25.8042-28.655 28.3342-28.655L28.9392-28.655C31.3958-28.655 33.5042-28.0775 35.2642-26.9225 37.0242-25.7675 38.3075-24.2367 39.1142-22.33L35.5942-20.68C34.9708-21.9633 34.1092-22.9808 33.0092-23.7325 31.9092-24.4842 30.5525-24.86 28.9392-24.86L28.3892-24.86C25.8958-24.86 23.8517-24.035 22.2567-22.385 20.6617-20.735 19.8642-18.2783 19.8642-15.015L19.8642-12.98C19.8642-9.68 20.6433-7.21417 22.2017-5.5825 23.76-3.95083 25.8225-3.135 28.3892-3.135L28.9392-3.135C30.6258-3.135 32.0283-3.4925 33.1467-4.2075 34.265-4.9225 35.1175-5.885 35.7042-7.095L39.2242-5.39C38.4175-3.59333 37.125-2.13583 35.3467-1.0175 33.5683 0.100833 31.4325 0.66 28.9392 0.66ZM46.2229 11 46.2229-27.995 50.2379-27.995 50.2379-23.21C51.0812-24.86 52.3004-26.18 53.8954-27.17 55.4904-28.16 57.4246-28.655 59.6979-28.655L60.0829-28.655C62.4296-28.655 64.5012-28.1325 66.2979-27.0875 68.0946-26.0425 69.5154-24.5025 70.5604-22.4675 71.6054-20.4325 72.1279-17.9483 72.1279-15.015L72.1279-12.98C72.1279-10.0467 71.6054-7.5625 70.5604-5.5275 69.5154-3.4925 68.0946-1.9525 66.2979-0.9075 64.5012 0.1375 62.4296 0.66 60.0829 0.66L59.6979 0.66C57.6079 0.66 55.7837 0.22 54.2254-0.66 52.6671-1.54 51.4662-2.73167 50.6229-4.235L50.6229 11ZM58.8729-3.135 59.3679-3.135C61.7512-3.135 63.7404-3.94167 65.3354-5.555 66.9304-7.16833 67.7279-9.66167 67.7279-13.035L67.7279-15.015C67.7279-18.3883 66.9304-20.8725 65.3354-22.4675 63.7404-24.0625 61.7512-24.86 59.3679-24.86L58.8729-24.86C57.3696-24.86 55.9854-24.5117 54.7204-23.815 53.4554-23.1183 52.4562-22.0367 51.7229-20.57 50.9896-19.1033 50.6229-17.1967 50.6229-14.85L50.6229-13.145C50.6229-9.66167 51.4296-7.1225 53.0429-5.5275 54.6562-3.9325 56.5996-3.135 58.8729-3.135ZM79.4521 11 79.4521-27.995 83.4671-27.995 83.4671-23.21C84.3104-24.86 85.5296-26.18 87.1246-27.17 88.7196-28.16 90.6537-28.655 92.9271-28.655L93.3121-28.655C95.6587-28.655 97.7304-28.1325 99.5271-27.0875 101.324-26.0425 102.745-24.5025 103.79-22.4675 104.835-20.4325 105.357-17.9483 105.357-15.015L105.357-12.98C105.357-10.0467 104.835-7.5625 103.79-5.5275 102.745-3.4925 101.324-1.9525 99.5271-0.9075 97.7304 0.1375 95.6587 0.66 93.3121 0.66L92.9271 0.66C90.8371 0.66 89.0129 0.22 87.4546-0.66 85.8962-1.54 84.6954-2.73167 83.8521-4.235L83.8521 11ZM92.1021-3.135 92.5971-3.135C94.9804-3.135 96.9696-3.94167 98.5646-5.555 100.16-7.16833 100.957-9.66167 100.957-13.035L100.957-15.015C100.957-18.3883 100.16-20.8725 98.5646-22.4675 96.9696-24.0625 94.9804-24.86 92.5971-24.86L92.1021-24.86C90.5987-24.86 89.2146-24.5117 87.9496-23.815 86.6846-23.1183 85.6854-22.0367 84.9521-20.57 84.2187-19.1033 83.8521-17.1967 83.8521-14.85L83.8521-13.145C83.8521-9.66167 84.6587-7.1225 86.2721-5.5275 87.8854-3.9325 89.8287-3.135 92.1021-3.135Z" transform="matrix(1 0 0 1 44.1029 79)"/></g></g></g><rect x="1496.5" y="1049.5" width="445" height="259" stroke="#000000" stroke-width="1.14583" stroke-linejoin="round" stroke-miterlimit="10" fill="#D7EDFF"/><text font-family="NVIDIA Sans,NVIDIA Sans_MSFontService,sans-serif" font-weight="400" font-size="55" transform="matrix(1 0 0 1 1664.1 1196)">.cpp</text><g clip-path="url(#clip44)"><g clip-path="url(#clip45)" filter="url(#fx9)" transform="translate(1485 1383)"><g clip-path="url(#clip46)"><rect x="11.4999" y="11.0833" width="445" height="259" stroke="#000000" stroke-linejoin="round" stroke-miterlimit="10" fill="#D7EDFF"/></g></g><g clip-path="url(#clip47)" filter="url(#fx10)" transform="translate(1637 1463)"><g clip-path="url(#clip48)"><path d="M3.63 0 3.63-5.555 8.8-5.555 8.8 0ZM28.3342 0.66C24.4108 0.66 21.285-0.531667 18.9567-2.915 16.6283-5.29833 15.4642-8.65333 15.4642-12.98L15.4642-15.015C15.4642-17.875 16.005-20.3225 17.0867-22.3575 18.1683-24.3925 19.6808-25.9508 21.6242-27.0325 23.5675-28.1142 25.8042-28.655 28.3342-28.655L28.9392-28.655C31.3958-28.655 33.5042-28.0775 35.2642-26.9225 37.0242-25.7675 38.3075-24.2367 39.1142-22.33L35.5942-20.68C34.9708-21.9633 34.1092-22.9808 33.0092-23.7325 31.9092-24.4842 30.5525-24.86 28.9392-24.86L28.3892-24.86C25.8958-24.86 23.8517-24.035 22.2567-22.385 20.6617-20.735 19.8642-18.2783 19.8642-15.015L19.8642-12.98C19.8642-9.68 20.6433-7.21417 22.2017-5.5825 23.76-3.95083 25.8225-3.135 28.3892-3.135L28.9392-3.135C30.6258-3.135 32.0283-3.4925 33.1467-4.2075 34.265-4.9225 35.1175-5.885 35.7042-7.095L39.2242-5.39C38.4175-3.59333 37.125-2.13583 35.3467-1.0175 33.5683 0.100833 31.4325 0.66 28.9392 0.66ZM56.0679 0.66C52.9879 0.66 50.5129-0.311667 48.6429-2.255 46.7729-4.19833 45.8379-7.04 45.8379-10.78L45.8379-27.995 50.2379-27.995 50.2379-11.44C50.2379-8.72667 50.8154-6.66417 51.9704-5.2525 53.1254-3.84083 54.7846-3.135 56.9479-3.135L57.3879-3.135C58.8179-3.135 60.1287-3.4925 61.3204-4.2075 62.5121-4.9225 63.4654-5.98583 64.1804-7.3975 64.8954-8.80917 65.2529-10.5783 65.2529-12.705L65.2529-27.995 69.6529-27.995 69.6529 0 65.6379 0 65.6379-4.95C64.8679-3.26333 63.7312-1.90667 62.2279-0.88 60.7246 0.146667 58.8362 0.66 56.5629 0.66Z" transform="matrix(1 0 0 1 44.2904 78)"/></g></g></g><rect x="1496.5" y="1389.5" width="445" height="259" stroke="#000000" stroke-width="1.14583" stroke-linejoin="round" stroke-miterlimit="10" fill="#D7EDFF"/><text font-family="NVIDIA Sans,NVIDIA Sans_MSFontService,sans-serif" font-weight="400" font-size="55" transform="matrix(1 0 0 1 1681.29 1537)">.cu</text><g clip-path="url(#clip49)"><g clip-path="url(#clip50)" filter="url(#fx11)" transform="translate(2138 1043)"><g clip-path="url(#clip51)"><rect x="11.5" y="11.0833" width="446" height="259" stroke="#000000" stroke-linejoin="round" stroke-miterlimit="10" fill="#D7EDFF"/></g></g><g clip-path="url(#clip52)" filter="url(#fx12)" transform="translate(2257 1122)"><g clip-path="url(#clip53)"><path d="M5.225 0 5.225-38.5 9.79-38.5 9.79-3.905 28.215-3.905 28.215 0ZM35.5896 0 35.5896-38.5 40.1546-38.5 40.1546-3.905 58.5796-3.905 58.5796 0ZM71.7887 0 56.9937-38.5 61.9437-38.5 73.8787-5.94 85.8687-38.5 90.5437-38.5 75.7487 0ZM96.3417 0 96.3417-38.5 101.512-38.5 116.362-6.215 131.157-38.5 136.217-38.5 136.217 0 131.817 0 131.817-30.195 117.902 0 114.657 0 100.742-30.195 100.742 0Z" transform="matrix(1 0 0 1 44.3174 79)"/></g></g></g><rect x="2149.5" y="1049.5" width="446" height="259" stroke="#000000" stroke-width="1.14583" stroke-linejoin="round" stroke-miterlimit="10" fill="#D7EDFF"/><text font-family="NVIDIA Sans,NVIDIA Sans_MSFontService,sans-serif" font-weight="400" font-size="55" transform="matrix(1 0 0 1 2301.32 1196)">LLVM</text><g clip-path="url(#clip54)"><g clip-path="url(#clip55)" filter="url(#fx13)" transform="translate(2138 1383)"><g clip-path="url(#clip56)"><rect x="11.5" y="11.0833" width="446" height="259" stroke="#000000" stroke-linejoin="round" stroke-miterlimit="10" fill="#D7EDFF"/></g></g><g clip-path="url(#clip57)" filter="url(#fx14)" transform="translate(2239 1463)"><g clip-path="url(#clip58)"><path d="M5.225 0 5.225-38.5 9.185-38.5 30.91-7.755 30.91-38.5 35.255-38.5 35.255 0 31.295 0 9.625-30.69 9.625 0ZM56.2971 0 41.5021-38.5 46.4521-38.5 58.3871-5.94 70.3771-38.5 75.0521-38.5 60.2571 0ZM80.85 0 80.85-38.5 93.885-38.5C98.3583-38.5 101.805-37.5558 104.225-35.6675 106.645-33.7792 107.855-31.1117 107.855-27.665L107.855-26.4C107.855-23.7967 107.158-21.6242 105.765-19.8825 104.372-18.1408 102.355-16.9217 99.715-16.225L108.9 0 103.84 0 95.15-15.51C94.7467-15.51 94.325-15.51 93.885-15.51L85.415-15.51 85.415 0ZM85.415-19.415 93.83-19.415C96.8733-19.415 99.2108-19.9742 100.842-21.0925 102.474-22.2108 103.29-23.925 103.29-26.235L103.29-27.775C103.29-30.0483 102.474-31.7533 100.842-32.89 99.2108-34.0267 96.8733-34.595 93.83-34.595L85.415-34.595ZM124.268 0 124.268-34.595 111.893-34.595 111.893-38.5 141.208-38.5 141.208-34.595 128.833-34.595 128.833 0ZM161.086 0.66C155.769 0.66 151.69-0.980833 148.848-4.2625 146.007-7.54417 144.586-12.1367 144.586-18.04L144.586-20.515C144.586-24.3283 145.246-27.6375 146.566-30.4425 147.886-33.2475 149.783-35.4108 152.258-36.9325 154.733-38.4542 157.676-39.215 161.086-39.215L161.801-39.215C165.284-39.215 168.217-38.4083 170.601-36.795 172.984-35.1817 174.671-32.89 175.661-29.92L171.481-28.49C170.784-30.6533 169.592-32.3033 167.906-33.44 166.219-34.5767 164.184-35.145 161.801-35.145L161.141-35.145C157.364-35.145 154.422-33.88 152.313-31.35 150.205-28.82 149.151-25.245 149.151-20.625L149.151-17.93C149.151-13.1633 150.177-9.5425 152.231-7.0675 154.284-4.5925 157.254-3.355 161.141-3.355L161.801-3.355C164.257-3.355 166.357-3.89583 168.098-4.9775 169.84-6.05917 171.059-7.645 171.756-9.735L175.826-8.14C174.799-5.35333 173.067-3.19 170.628-1.65 168.19-0.11 165.247 0.66 161.801 0.66Z" transform="matrix(1 0 0 1 43.9038 78)"/></g></g></g><rect x="2149.5" y="1389.5" width="446" height="259" stroke="#000000" stroke-width="1.14583" stroke-linejoin="round" stroke-miterlimit="10" fill="#D7EDFF"/><text font-family="NVIDIA Sans,NVIDIA Sans_MSFontService,sans-serif" font-weight="400" font-size="55" transform="matrix(1 0 0 1 2282.9 1537)">NVRTC</text><g clip-path="url(#clip59)"><g clip-path="url(#clip60)" filter="url(#fx15)" transform="translate(2827 1220)"><g clip-path="url(#clip61)"><rect x="11.4998" y="11.0834" width="445" height="260" stroke="#000000" stroke-linejoin="round" stroke-miterlimit="10" fill="#D7EDFF"/></g></g><g clip-path="url(#clip62)" filter="url(#fx16)" transform="translate(2913 1300)"><g clip-path="url(#clip63)"><path d="M3.63 0 3.63-5.555 8.8-5.555 8.8 0Z" transform="matrix(1 0 0 1 44.134 78)"/><path d="M4.4 11 4.4-27.995 8.415-27.995 8.415-23.21C9.25833-24.86 10.4775-26.18 12.0725-27.17 13.6675-28.16 15.6017-28.655 17.875-28.655L18.26-28.655C20.6067-28.655 22.6783-28.1325 24.475-27.0875 26.2717-26.0425 27.6925-24.5025 28.7375-22.4675 29.7825-20.4325 30.305-17.9483 30.305-15.015L30.305-12.98C30.305-10.0467 29.7825-7.5625 28.7375-5.5275 27.6925-3.4925 26.2717-1.9525 24.475-0.9075 22.6783 0.1375 20.6067 0.66 18.26 0.66L17.875 0.66C15.785 0.66 13.9608 0.22 12.4025-0.66 10.8442-1.54 9.64333-2.73167 8.8-4.235L8.8 11ZM17.05-3.135 17.545-3.135C19.9283-3.135 21.9175-3.94167 23.5125-5.555 25.1075-7.16833 25.905-9.66167 25.905-13.035L25.905-15.015C25.905-18.3883 25.1075-20.8725 23.5125-22.4675 21.9175-24.0625 19.9283-24.86 17.545-24.86L17.05-24.86C15.5467-24.86 14.1625-24.5117 12.8975-23.815 11.6325-23.1183 10.6333-22.0367 9.9-20.57 9.16667-19.1033 8.8-17.1967 8.8-14.85L8.8-13.145C8.8-9.66167 9.60667-7.1225 11.22-5.5275 12.8333-3.9325 14.7767-3.135 17.05-3.135ZM47.5842 0.22C44.3575 0.22 42.0658-0.531667 40.7092-2.035 39.3525-3.53833 38.6742-5.59167 38.6742-8.195L38.6742-24.365 32.6792-24.365 32.6792-27.995 38.6742-27.995 38.6742-36.465 43.0742-36.465 43.0742-27.995 52.7542-27.995 52.1492-24.365 43.0742-24.365 43.0742-8.47C43.0742-6.71 43.4775-5.43583 44.2842-4.6475 45.0908-3.85917 46.3375-3.465 48.0242-3.465L52.7542-3.465 52.7542 0.22ZM77.0687 0 69.3138-11.275 61.5037 0 56.5537 0 66.7287-14.19 56.9387-27.995 62.0537-27.995 69.4787-17.16 76.8487-27.995 81.7987-27.995 72.0087-14.19 82.1837 0Z" transform="matrix(1 0 0 1 56.7383 78)"/><path d="M4.785 7.15 0.385 7.15 14.245-42.35 18.645-42.35ZM22.5362 0 22.5362-5.555 27.7062-5.555 27.7062 0ZM47.1304 0.66C44.7104 0.66 42.5379 0.119167 40.6129-0.9625 38.6879-2.04417 37.1662-3.61167 36.0479-5.665 34.9296-7.71833 34.3704-10.175 34.3704-13.035L34.3704-14.96C34.3704-17.82 34.9296-20.2767 36.0479-22.33 37.1662-24.3833 38.6879-25.9508 40.6129-27.0325 42.5379-28.1142 44.7104-28.655 47.1304-28.655L47.6804-28.655C50.1371-28.655 52.3279-28.1142 54.2529-27.0325 56.1779-25.9508 57.6996-24.3925 58.8179-22.3575 59.9362-20.3225 60.4954-17.875 60.4954-15.015L60.4954-12.98C60.4954-10.12 59.9362-7.6725 58.8179-5.6375 57.6996-3.6025 56.1779-2.04417 54.2529-0.9625 52.3279 0.119167 50.1371 0.66 47.6804 0.66ZM47.1854-3.135 47.6254-3.135C50.0087-3.135 52.0162-3.96 53.6479-5.61 55.2796-7.26 56.0954-9.71667 56.0954-12.98L56.0954-15.015C56.0954-18.2783 55.2796-20.735 53.6479-22.385 52.0162-24.035 50.0087-24.86 47.6254-24.86L47.1854-24.86C44.8387-24.86 42.8496-24.035 41.2179-22.385 39.5862-20.735 38.7704-18.2783 38.7704-15.015L38.7704-12.98C38.7704-9.71667 39.5862-7.26 41.2179-5.61 42.8496-3.96 44.8387-3.135 47.1854-3.135ZM80.8958 0.66C78.6225 0.66 76.6883 0.165 75.0933-0.825 73.4983-1.815 72.2792-3.15333 71.4358-4.84L71.4358 0 67.4208 0 67.4208-40.15 71.8208-40.15 71.8208-23.705C72.6642-25.2083 73.865-26.4092 75.4233-27.3075 76.9817-28.2058 78.8058-28.655 80.8958-28.655L81.2808-28.655C83.6275-28.655 85.6992-28.1325 87.4958-27.0875 89.2925-26.0425 90.7133-24.5025 91.7583-22.4675 92.8033-20.4325 93.3258-17.9483 93.3258-15.015L93.3258-12.98C93.3258-10.0467 92.8033-7.5625 91.7583-5.5275 90.7133-3.4925 89.2925-1.9525 87.4958-0.9075 85.6992 0.1375 83.6275 0.66 81.2808 0.66ZM80.0708-3.135 80.5658-3.135C82.9492-3.135 84.9383-3.94167 86.5333-5.555 88.1283-7.16833 88.9258-9.66167 88.9258-13.035L88.9258-15.015C88.9258-18.3883 88.1283-20.8725 86.5333-22.4675 84.9383-24.0625 82.9492-24.86 80.5658-24.86L80.0708-24.86C78.5675-24.86 77.1833-24.5117 75.9183-23.815 74.6533-23.1183 73.6542-22.0367 72.9208-20.57 72.1875-19.1033 71.8208-17.1967 71.8208-14.85L71.8208-13.145C71.8208-9.66167 72.6275-7.1225 74.2408-5.5275 75.8542-3.9325 77.7975-3.135 80.0708-3.135ZM94.82 11 94.82 7.315 96.69 7.315C98.0833 7.315 99.0917 6.9025 99.715 6.0775 100.338 5.2525 100.65 4.03333 100.65 2.42L100.65-27.995 105.05-27.995 105.05 2.42C105.05 5.02333 104.39 7.10417 103.07 8.6625 101.75 10.2208 99.6233 11 96.69 11ZM100.54-33.88 100.54-38.885 105.16-38.885 105.16-33.88Z" transform="matrix(1 0 0 1 141.438 78)"/></g></g></g><rect x="2838.5" y="1226.5" width="445" height="260" stroke="#000000" stroke-width="1.14583" stroke-linejoin="round" stroke-miterlimit="10" fill="#D7EDFF"/><text font-family="NVIDIA Sans,NVIDIA Sans_MSFontService,sans-serif" font-weight="400" font-size="55" transform="matrix(1 0 0 1 2957.13 1374)">.<tspan font-size="55" x="12.6042" y="0">ptx</tspan><tspan font-size="55" x="97.3042" y="0">/.obj</tspan></text><g clip-path="url(#clip64)"><g clip-path="url(#clip65)" filter="url(#fx17)" transform="translate(3568 1099)"><g clip-path="url(#clip66)"><rect x="11.5" y="11.0834" width="471" height="502" stroke="#000000" stroke-linejoin="round" stroke-miterlimit="10" fill="#D7EDFF"/></g></g><g clip-path="url(#clip67)" filter="url(#fx18)" transform="translate(3594 1234)"><g clip-path="url(#clip68)"><path d="M5.225 0 5.225-38.5 18.755-38.5C23.1183-38.5 26.5008-37.5192 28.9025-35.5575 31.3042-33.5958 32.505-30.8183 32.505-27.225L32.505-25.905C32.505-22.3117 31.2858-19.525 28.8475-17.545 26.4092-15.565 23.045-14.575 18.755-14.575L9.79-14.575 9.79 0ZM9.79-18.48 18.7-18.48C21.6333-18.48 23.9067-19.085 25.52-20.295 27.1333-21.505 27.94-23.3383 27.94-25.795L27.94-27.28C27.94-29.7367 27.1333-31.57 25.52-32.78 23.9067-33.99 21.6333-34.595 18.7-34.595L9.79-34.595ZM38.9308 11 38.9308 7.315 40.4708 7.315C42.1942 7.315 43.505 6.93 44.4033 6.16 45.3017 5.39 46.1542 3.905 46.9608 1.705L47.5658 0.055 36.5108-27.995 41.1858-27.995 49.8758-4.62 58.1808-27.995 62.6358-27.995 51.3058 1.87C50.4258 4.25333 49.5275 6.11417 48.6108 7.4525 47.6942 8.79083 46.6308 9.71667 45.4208 10.23 44.2108 10.7433 42.7075 11 40.9108 11ZM80.6987 0.22C77.4721 0.22 75.1804-0.531667 73.8237-2.035 72.4671-3.53833 71.7887-5.59167 71.7887-8.195L71.7887-24.365 65.7937-24.365 65.7937-27.995 71.7887-27.995 71.7887-36.465 76.1888-36.465 76.1888-27.995 85.8687-27.995 85.2637-24.365 76.1888-24.365 76.1888-8.47C76.1888-6.71 76.5921-5.43583 77.3988-4.6475 78.2054-3.85917 79.4521-3.465 81.1387-3.465L85.8687-3.465 85.8687 0.22ZM92.5833 0 92.5833-40.15 96.9833-40.15 96.9833-23.65C97.79-25.1533 98.9542-26.3633 100.476-27.28 101.997-28.1967 103.84-28.655 106.003-28.655L106.498-28.655C109.688-28.655 112.246-27.6833 114.171-25.74 116.096-23.7967 117.058-20.955 117.058-17.215L117.058 0 112.658 0 112.658-16.5C112.658-19.25 112.053-21.3308 110.843-22.7425 109.633-24.1542 107.892-24.86 105.618-24.86L105.233-24.86C103.767-24.86 102.41-24.5025 101.163-23.7875 99.9167-23.0725 98.9083-22.0092 98.1383-20.5975 97.3683-19.1858 96.9833-17.4167 96.9833-15.29L96.9833 0ZM136.46 0.66C134.04 0.66 131.867 0.119167 129.942-0.9625 128.017-2.04417 126.495-3.61167 125.377-5.665 124.259-7.71833 123.7-10.175 123.7-13.035L123.7-14.96C123.7-17.82 124.259-20.2767 125.377-22.33 126.495-24.3833 128.017-25.9508 129.942-27.0325 131.867-28.1142 134.04-28.655 136.46-28.655L137.01-28.655C139.466-28.655 141.657-28.1142 143.582-27.0325 145.507-25.9508 147.029-24.3925 148.147-22.3575 149.265-20.3225 149.825-17.875 149.825-15.015L149.825-12.98C149.825-10.12 149.265-7.6725 148.147-5.6375 147.029-3.6025 145.507-2.04417 143.582-0.9625 141.657 0.119167 139.466 0.66 137.01 0.66ZM136.515-3.135 136.955-3.135C139.338-3.135 141.345-3.96 142.977-5.61 144.609-7.26 145.425-9.71667 145.425-12.98L145.425-15.015C145.425-18.2783 144.609-20.735 142.977-22.385 141.345-24.035 139.338-24.86 136.955-24.86L136.515-24.86C134.168-24.86 132.179-24.035 130.547-22.385 128.915-20.735 128.1-18.2783 128.1-15.015L128.1-12.98C128.1-9.71667 128.915-7.26 130.547-5.61 132.179-3.96 134.168-3.135 136.515-3.135ZM156.75 0 156.75-27.995 160.765-27.995 160.765-22.99C161.535-24.6767 162.708-26.0425 164.285-27.0875 165.862-28.1325 167.823-28.655 170.17-28.655L170.665-28.655C173.855-28.655 176.413-27.6833 178.338-25.74 180.263-23.7967 181.225-20.955 181.225-17.215L181.225 0 176.825 0 176.825-16.5C176.825-19.25 176.22-21.3308 175.01-22.7425 173.8-24.1542 172.058-24.86 169.785-24.86L169.4-24.86C167.933-24.86 166.577-24.5025 165.33-23.7875 164.083-23.0725 163.075-22.0092 162.305-20.5975 161.535-19.1858 161.15-17.4167 161.15-15.29L161.15 0Z" transform="matrix(1 0 0 1 128.269 78)"/><path d="M19.3359 0 16.0059-22.6123 15.5762-22.6123 13.2397-28.4668 18.4497-28.4668 21.8066-4.29687 22.29-4.29687 24.707-28.4668 30.3467-28.4668 26.3184 0ZM5.10254 0 1.87988-28.4668 7.25098-28.4668 9.39941-4.29687 9.88281-4.29687 13.2397-28.4668 18.4497-28.4668 16.0596-22.6123 15.6836-22.6123 12.3535 0ZM36.5951 12.3535 36.5951-28.4668 41.7513-28.4668 42.2884-22.4512 42.2884 12.3535ZM50.3719 0.537109C48.1877 0.537109 46.4286 0.0358072 45.0948-0.966797 43.761-1.9694 43.0046-3.36589 42.8255-5.15625L40.3548-5.15625 42.2884-13.2666C42.2884-10.3304 42.8658-8.1014 44.0206-6.57959 45.1754-5.05778 46.8717-4.29687 49.1097-4.29687 51.4014-4.29687 53.138-5.11149 54.3197-6.74072 55.5013-8.36995 56.0921-10.778 56.0921-13.9648 56.0921-17.3307 55.5013-19.873 54.3197-21.5918 53.138-23.3105 51.4014-24.1699 49.1097-24.1699 46.8717-24.1699 45.1754-23.409 44.0206-21.8872 42.8658-20.3654 42.2884-18.1364 42.2884-15.2002L40.3548-23.3105 42.557-23.3105C42.8076-25.1009 43.6178-26.4974 44.9874-27.5 46.357-28.5026 48.1519-29.0039 50.3719-29.0039 54.1138-29.0039 56.9425-27.7327 58.8582-25.1904 60.7739-22.6481 61.7318-18.9062 61.7318-13.9648 61.7318-9.20247 60.7739-5.59489 58.8582-3.14209 56.9425-0.68929 54.1138 0.537109 50.3719 0.537109ZM80.2799 0.537109C79.1878 0.537109 78.2523 0.147705 77.4735-0.631103 76.6947-1.40991 76.3053-2.34538 76.3053-3.4375 76.3053-4.54753 76.6947-5.48747 77.4735-6.25732 78.2523-7.02718 79.1878-7.41211 80.2799-7.41211 81.39-7.41211 82.3299-7.02718 83.0998-6.25732 83.8696-5.48747 84.2546-4.54753 84.2546-3.4375 84.2546-2.34538 83.8696-1.40991 83.0998-0.631103 82.3299 0.147705 81.39 0.537109 80.2799 0.537109ZM116.606 0.537109C113.312 0.537109 110.931-0.358073 109.463-2.14844 107.995-3.9388 107.261-6.80338 107.261-10.7422L107.261-40.2832 112.954-40.2832 112.954-11.0107C112.954-9.50683 113.097-8.28044 113.384-7.33154 113.67-6.38265 114.23-5.68441 115.062-5.23682 115.895-4.78922 117.126-4.56543 118.755-4.56543 120.241-4.56543 122.139-4.9056 124.448-5.58594L125.093-0.59082C123.643-0.19694 122.251 0.0895182 120.917 0.268555 119.583 0.447591 118.146 0.537109 116.606 0.537109ZM98.8818-35.2881 98.8818-40.2832 107.744-40.2832 107.744-35.2881ZM150.301 0.268555 149.925-8.16406 149.173-10.5273 149.173-17.8857C149.173-19.7835 148.506-21.1755 147.172-22.0618 145.839-22.948 143.856-23.4269 141.224-23.4985L134.403-23.6865 134.94-28.7353 140.687-28.6548C145.396-28.5832 148.891-27.5671 151.174-25.6067 153.457-23.6462 154.598-20.7861 154.598-17.0264L154.598-5.15625 159.432-4.56543 159.432 0ZM140.257 0.537109C137.285 0.537109 134.985-0.179037 133.355-1.61133 131.726-3.04362 130.911-5.06673 130.911-7.68066 130.911-10.6885 132.035-12.998 134.282-14.6094 136.529-16.2207 139.702-17.0264 143.802-17.0264 145.503-17.0264 147.02-16.9234 148.354-16.7175 149.688-16.5116 150.874-16.2028 151.912-15.791L150.731-11.9238C149.531-12.1924 148.359-12.349 147.213-12.3938 146.067-12.4386 144.894-12.4609 143.695-12.4609 138.753-12.4609 136.283-10.957 136.283-7.94922 136.283-6.69596 136.708-5.72917 137.558-5.04883 138.409-4.36849 139.613-4.02832 141.17-4.02832 142.943-4.02832 144.424-4.33268 145.615-4.94141 146.805-5.55013 147.696-6.32894 148.287-7.27783 148.878-8.22672 149.173-9.20247 149.173-10.2051L149.173-13.3203 150.838-6.01562 148.582-6.01562 149.495-6.875C149.495-5.22786 149.115-3.85376 148.354-2.75269 147.593-1.65161 146.523-0.828044 145.145-0.281982 143.766 0.264079 142.137 0.537109 140.257 0.537109ZM173.737 0.537109C170.747 0.537109 168.433-0.353597 166.795-2.13501 165.157-3.91642 164.338-6.42741 164.338-9.66797L164.338-28.4668 170.031-28.4668 170.031-9.66797C170.031-8.03874 170.496-6.781 171.427-5.89477 172.358-5.00854 173.665-4.56543 175.348-4.56543 177.425-4.56543 178.992-5.22339 180.048-6.53931 181.104-7.85522 181.632-10.0618 181.632-13.1592L183.083-5.47852 181.203-5.47852C180.755-3.54492 179.878-2.05892 178.571-1.02051 177.264 0.0179036 175.653 0.537109 173.737 0.537109ZM182.116 0.268555 181.632-6.55273 181.632-11.5479 187.326-11.5479 187.326-5.15625 191.247-4.56543 191.247 0ZM181.632-8.05664 181.632-28.4668 187.326-28.4668 187.326-9.66797ZM214.521 0 214.521-18.5303C214.521-20.249 214.074-21.5739 213.179-22.5049 212.284-23.4359 211.03-23.9014 209.419-23.9014 204.943-23.9014 202.705-21.2695 202.705-16.0059L201.04-23.3105 203.242-23.3105C203.403-25.2262 204.102-26.6541 205.337-27.594 206.572-28.5339 208.381-29.0039 210.762-29.0039 213.77-29.0039 216.097-28.0908 217.744-26.2646 219.391-24.4385 220.215-21.8603 220.215-18.5303L220.215 0ZM197.012 0 197.012-28.4668 202.168-28.4668 202.705-22.4512 202.705 0ZM243.436 0.537109C238.584 0.537109 234.838-0.738525 232.197-3.28979 229.556-5.84106 228.236-9.50683 228.236-14.2871 228.236-18.9421 229.484-22.5586 231.982-25.1367 234.48-27.7148 238.047-29.0039 242.684-29.0039 245.459-29.0039 247.836-28.4892 249.814-27.4597 251.792-26.4303 253.202-24.9756 254.044-23.0957L249.666-19.7925C248.861-21.0994 247.831-22.111 246.578-22.8271 245.325-23.5433 243.955-23.9014 242.469-23.9014 239.784-23.9014 237.698-23.0912 236.212-21.4709 234.726-19.8507 233.983-17.5456 233.983-14.5557 233.983-11.3151 234.856-8.83992 236.601-7.13013 238.347-5.42033 240.84-4.56543 244.08-4.56543 245.405-4.56543 246.73-4.62809 248.055-4.75342 249.38-4.87874 250.669-5.04883 251.922-5.26367L252.567-0.268555C251.099 0.0537109 249.581 0.268555 248.015 0.375977 246.448 0.483398 244.922 0.537109 243.436 0.537109ZM278.688 0 278.688-18.5303C278.688-20.3385 278.241-21.7305 277.345-22.7063 276.45-23.682 275.197-24.1699 273.586-24.1699 269.11-24.1699 266.872-21.4486 266.872-16.0059L265.207-23.3105 267.409-23.3105C267.57-25.2262 268.268-26.6541 269.504-27.594 270.739-28.5339 272.547-29.0039 274.928-29.0039 277.936-29.0039 280.264-28.0908 281.911-26.2646 283.558-24.4385 284.382-21.8603 284.382-18.5303L284.382 0ZM261.178 0 261.178-40.2832 266.872-40.2832 266.872 0Z" transform="matrix(1 0 0 1 44.302 213)"/><path d="M25.5127 5.37109C19.694 5.37109 15.1778 3.22713 11.9641-1.06079 8.75041-5.34871 7.14355-11.4046 7.14355-19.2285 7.14355-26.945 8.75041-32.9203 11.9641-37.1545 15.1778-41.3887 19.694-43.5059 25.5127-43.5059L26.8018-43.5059 26.8018-38.6719 26.0498-38.6719C21.8066-38.6719 18.5347-36.971 16.2341-33.5693 13.9335-30.1676 12.7832-25.3874 12.7832-19.2285 12.7832-12.9622 13.9335-8.1014 16.2341-4.646 18.5347-1.19059 21.8066 0.537109 26.0498 0.537109L26.8018 0.537109 26.8018 5.37109ZM37.5081 5.37109 37.5081 0.537109 38.2601 0.537109C42.5033 0.537109 45.7751-1.19059 48.0758-4.646 50.3764-8.1014 51.5267-12.9622 51.5267-19.2285 51.5267-25.3874 50.3764-30.1676 48.0758-33.5693 45.7751-36.971 42.5033-38.6719 38.2601-38.6719L37.5081-38.6719 37.5081-43.5059 38.7972-43.5059C44.6338-43.5059 49.1545-41.3887 52.3592-37.1545 55.564-32.9203 57.1663-26.945 57.1663-19.2285 57.1663-11.4046 55.564-5.34871 52.3592-1.06079 49.1545 3.22713 44.6338 5.37109 38.7972 5.37109Z" transform="matrix(1 0 0 1 333.052 213)"/></g></g></g><rect x="3579.5" y="1105.5" width="471" height="502" stroke="#000000" stroke-width="1.14583" stroke-linejoin="round" stroke-miterlimit="10" fill="#D7EDFF"/><text font-family="NVIDIA Sans,NVIDIA Sans_MSFontService,sans-serif" font-weight="400" font-size="55" transform="matrix(1 0 0 1 3722.27 1308)">Python<tspan font-family="Cascadia Code,Cascadia Code_MSFontService,sans-serif" font-size="55" x="-83.9666" y="134">wp.launch</tspan><tspan font-family="Cascadia Code,Cascadia Code_MSFontService,sans-serif" font-size="55" x="204.783" y="134">()</tspan></text><g clip-path="url(#clip69)"><g clip-path="url(#clip70)" filter="url(#fx19)" transform="translate(2045 544)"><g clip-path="url(#clip71)"><rect x="11.5002" y="11.0832" width="647" height="300" stroke="#000000" stroke-linejoin="round" stroke-miterlimit="10" fill="#D7EDFF"/></g></g><g clip-path="url(#clip72)" filter="url(#fx20)" transform="translate(2098 584)"><g clip-path="url(#clip73)"><path d="M17.875 0.66C15.6017 0.66 13.6675 0.165 12.0725-0.825 10.4775-1.815 9.25833-3.15333 8.415-4.84L8.415 0 4.4 0 4.4-40.15 8.8-40.15 8.8-23.705C9.64333-25.2083 10.8442-26.4092 12.4025-27.3075 13.9608-28.2058 15.785-28.655 17.875-28.655L18.26-28.655C20.6067-28.655 22.6783-28.1325 24.475-27.0875 26.2717-26.0425 27.6925-24.5025 28.7375-22.4675 29.7825-20.4325 30.305-17.9483 30.305-15.015L30.305-12.98C30.305-10.0467 29.7825-7.5625 28.7375-5.5275 27.6925-3.4925 26.2717-1.9525 24.475-0.9075 22.6783 0.1375 20.6067 0.66 18.26 0.66ZM17.05-3.135 17.545-3.135C19.9283-3.135 21.9175-3.94167 23.5125-5.555 25.1075-7.16833 25.905-9.66167 25.905-13.035L25.905-15.015C25.905-18.3883 25.1075-20.8725 23.5125-22.4675 21.9175-24.0625 19.9283-24.86 17.545-24.86L17.05-24.86C15.5467-24.86 14.1625-24.5117 12.8975-23.815 11.6325-23.1183 10.6333-22.0367 9.9-20.57 9.16667-19.1033 8.8-17.1967 8.8-14.85L8.8-13.145C8.8-9.66167 9.60667-7.1225 11.22-5.5275 12.8333-3.9325 14.7767-3.135 17.05-3.135ZM47.4742 0.66C44.3942 0.66 41.9192-0.311667 40.0492-2.255 38.1792-4.19833 37.2442-7.04 37.2442-10.78L37.2442-27.995 41.6442-27.995 41.6442-11.44C41.6442-8.72667 42.2217-6.66417 43.3767-5.2525 44.5317-3.84083 46.1908-3.135 48.3542-3.135L48.7942-3.135C50.2242-3.135 51.535-3.4925 52.7267-4.2075 53.9183-4.9225 54.8717-5.98583 55.5867-7.3975 56.3017-8.80917 56.6592-10.5783 56.6592-12.705L56.6592-27.995 61.0592-27.995 61.0592 0 57.0442 0 57.0442-4.95C56.2742-3.26333 55.1375-1.90667 53.6342-0.88 52.1308 0.146667 50.2425 0.66 47.9692 0.66ZM69.7125 0 69.7125-27.995 74.1125-27.995 74.1125 0ZM69.6025-33.88 69.6025-38.885 74.2225-38.885 74.2225-33.88ZM82.8896 0 82.8896-40.15 87.2896-40.15 87.2896 0ZM107.672 0.22C104.445 0.22 102.153-0.531667 100.797-2.035 99.44-3.53833 98.7617-5.59167 98.7617-8.195L98.7617-24.365 92.7667-24.365 92.7667-27.995 98.7617-27.995 98.7617-36.465 103.162-36.465 103.162-27.995 112.842-27.995 112.237-24.365 103.162-24.365 103.162-8.47C103.162-6.71 103.565-5.43583 104.372-4.6475 105.178-3.85917 106.425-3.465 108.112-3.465L112.842-3.465 112.842 0.22ZM119.556 0 119.556-27.995 123.956-27.995 123.956 0ZM119.446-33.88 119.446-38.885 124.066-38.885 124.066-33.88ZM132.733 0 132.733-27.995 136.748-27.995 136.748-22.99C137.518-24.6767 138.692-26.0425 140.268-27.0875 141.845-28.1325 143.807-28.655 146.153-28.655L146.648-28.655C149.838-28.655 152.396-27.6833 154.321-25.74 156.246-23.7967 157.208-20.955 157.208-17.215L157.208 0 152.808 0 152.808-16.5C152.808-19.25 152.203-21.3308 150.993-22.7425 149.783-24.1542 148.042-24.86 145.768-24.86L145.383-24.86C143.917-24.86 142.56-24.5025 141.313-23.7875 140.067-23.0725 139.058-22.0092 138.288-20.5975 137.518-19.1858 137.133-17.4167 137.133-15.29L137.133 0ZM164.62 0 164.62-5.555 169.79-5.555 169.79 0ZM177.994 0 177.994-40.15 182.394-40.15 182.394-23.65C183.2-25.1533 184.365-26.3633 185.886-27.28 187.408-28.1967 189.25-28.655 191.414-28.655L191.909-28.655C195.099-28.655 197.656-27.6833 199.581-25.74 201.506-23.7967 202.469-20.955 202.469-17.215L202.469 0 198.069 0 198.069-16.5C198.069-19.25 197.464-21.3308 196.254-22.7425 195.044-24.1542 193.302-24.86 191.029-24.86L190.644-24.86C189.177-24.86 187.82-24.5025 186.574-23.7875 185.327-23.0725 184.319-22.0092 183.549-20.5975 182.779-19.1858 182.394-17.4167 182.394-15.29L182.394 0Z" transform="matrix(1 0 0 1 178.254 78)"/><path d="M0.69 0 13.616-32.2 16.928-32.2 29.9 0 25.806 0 22.724-7.958 7.682-7.958 4.6 0ZM8.924-11.178 21.436-11.178 15.18-27.324ZM34.0446 0 34.0446-23.414 37.4026-23.414 37.4026-18.492C37.9546-20.0253 38.7902-21.2597 39.9096-22.195 41.0289-23.1303 42.6619-23.598 44.8086-23.598L46.9706-23.598 46.9706-20.24 44.6246-20.24C42.6312-20.24 40.9829-19.5577 39.6796-18.193 38.3762-16.8283 37.7246-14.7353 37.7246-11.914L37.7246 0ZM52.3779 0 52.3779-23.414 55.7359-23.414 55.7359-18.492C56.2879-20.0253 57.1236-21.2597 58.2429-22.195 59.3622-23.1303 60.9952-23.598 63.1419-23.598L65.3039-23.598 65.3039-20.24 62.9579-20.24C60.9646-20.24 59.3162-19.5577 58.0129-18.193 56.7096-16.8283 56.0579-14.7353 56.0579-11.914L56.0579 0ZM76.7832 0.552C74.2686 0.552 72.3366-0.046 70.9873-1.242 69.6379-2.438 68.9632-4.15533 68.9632-6.394 68.9632-8.234 69.5382-9.74433 70.6882-10.925 71.8382-12.1057 73.5326-12.8493 75.7712-13.156L84.9713-14.398 84.9713-14.582C84.9713-18.7833 83.1006-20.884 79.3593-20.884L78.8532-20.884C75.9092-20.884 73.9006-19.7493 72.8272-17.48L69.8832-18.906C70.5886-20.5007 71.7156-21.7427 73.2643-22.632 74.8129-23.5213 76.6759-23.966 78.8532-23.966L79.5433-23.966C82.5179-23.966 84.7796-23.184 86.3282-21.62 87.8769-20.056 88.6512-17.7867 88.6512-14.812L88.6512 0 85.2933 0 85.2933-4.186C84.5879-2.714 83.5146-1.55633 82.0732-0.713 80.6319 0.130333 79.0066 0.552 77.1973 0.552ZM84.9713-11.592 77.3353-10.488C75.5566-10.2427 74.3146-9.82866 73.6093-9.246 72.9039-8.66333 72.5512-7.774 72.5512-6.578 72.5512-5.25933 72.9729-4.24733 73.8162-3.542 74.6596-2.83667 75.8786-2.484 77.4733-2.484L77.9333-2.484C80.0492-2.484 81.7512-3.15867 83.0392-4.508 84.3272-5.85733 84.9713-7.65133 84.9713-9.89ZM94.5187 9.2 94.5187 6.118 95.8067 6.118C97.248 6.118 98.3443 5.796 99.0957 5.152 99.847 4.508 100.56 3.266 101.235 1.426L101.741 0.046 92.4947-23.414 96.4047-23.414 103.673-3.864 110.619-23.414 114.345-23.414 104.869 1.564C104.133 3.55733 103.381 5.11367 102.615 6.233 101.848 7.35233 100.959 8.12667 99.9467 8.556 98.9347 8.98533 97.6773 9.2 96.1747 9.2ZM118.79 6.486 117.41 4.692 118.698 3.68C119.281 3.25067 119.68 2.86733 119.894 2.53 120.109 2.19267 120.216 1.62533 120.216 0.828L120.216 0 118.192 0 118.192-4.646 122.516-4.646 122.516 0.828C122.516 1.68667 122.432 2.38433 122.263 2.921 122.095 3.45767 121.819 3.92533 121.435 4.324 121.052 4.72267 120.523 5.18267 119.848 5.704ZM141.87 0 141.87-32.2 146.194-32.2 158.614-5.198 170.988-32.2 175.22-32.2 175.22 0 171.54 0 171.54-25.254 159.902 0 157.188 0 145.55-25.254 145.55 0ZM189.075 0.552C186.56 0.552 184.628-0.046 183.279-1.242 181.93-2.438 181.255-4.15533 181.255-6.394 181.255-8.234 181.83-9.74433 182.98-10.925 184.13-12.1057 185.824-12.8493 188.063-13.156L197.263-14.398 197.263-14.582C197.263-18.7833 195.392-20.884 191.651-20.884L191.145-20.884C188.201-20.884 186.192-19.7493 185.119-17.48L182.175-18.906C182.88-20.5007 184.007-21.7427 185.556-22.632 187.105-23.5213 188.968-23.966 191.145-23.966L191.835-23.966C194.81-23.966 197.071-23.184 198.62-21.62 200.169-20.056 200.943-17.7867 200.943-14.812L200.943 0 197.585 0 197.585-4.186C196.88-2.714 195.806-1.55633 194.365-0.713 192.924 0.130333 191.298 0.552 189.489 0.552ZM197.263-11.592 189.627-10.488C187.848-10.2427 186.606-9.82866 185.901-9.246 185.196-8.66333 184.843-7.774 184.843-6.578 184.843-5.25933 185.265-4.24733 186.108-3.542 186.951-2.83667 188.17-2.484 189.765-2.484L190.225-2.484C192.341-2.484 194.043-3.15867 195.331-4.508 196.619-5.85733 197.263-7.65133 197.263-9.89ZM217.344 0.184C214.646 0.184 212.729-0.444667 211.594-1.702 210.46-2.95933 209.892-4.67667 209.892-6.854L209.892-20.378 204.878-20.378 204.878-23.414 209.892-23.414 209.892-30.498 213.572-30.498 213.572-23.414 221.668-23.414 221.162-20.378 213.572-20.378 213.572-7.084C213.572-5.612 213.91-4.54633 214.584-3.887 215.259-3.22767 216.302-2.898 217.712-2.898L221.668-2.898 221.668 0.184ZM227.117 0 227.117-33.58 230.798-33.58 230.798-19.78C231.472-21.0373 232.446-22.0493 233.719-22.816 234.991-23.5827 236.532-23.966 238.341-23.966L238.755-23.966C241.423-23.966 243.562-23.1533 245.173-21.528 246.782-19.9027 247.587-17.526 247.587-14.398L247.587 0 243.908 0 243.908-13.8C243.908-16.1 243.401-17.8403 242.389-19.021 241.377-20.2017 239.921-20.792 238.02-20.792L237.697-20.792C236.471-20.792 235.336-20.493 234.294-19.895 233.251-19.297 232.407-18.4077 231.764-17.227 231.119-16.0463 230.797-14.5667 230.798-12.788L230.798 0ZM254.572 6.486 253.191 4.692 254.479 3.68C255.062 3.25067 255.461 2.86733 255.676 2.53 255.89 2.19267 255.997 1.62533 255.997 0.828L255.997 0 253.973 0 253.973-4.646 258.297-4.646 258.297 0.828C258.297 1.68667 258.213 2.38433 258.044 2.921 257.876 3.45767 257.6 3.92533 257.216 4.324 256.833 4.72267 256.304 5.18267 255.63 5.704ZM290.715 0.552C285.962 0.552 282.351-0.782 279.882-3.45 277.414-6.118 276.179-9.96667 276.179-14.996L276.179-17.066C276.179-20.3167 276.739-23.115 277.858-25.461 278.978-27.807 280.572-29.6163 282.642-30.889 284.712-32.1617 287.158-32.798 289.979-32.798L290.531-32.798C293.445-32.798 295.913-32.1617 297.937-30.889 299.961-29.6163 301.418-27.7687 302.307-25.346L298.811-24.15C297.585-27.646 294.825-29.394 290.531-29.394L289.979-29.394C286.821-29.394 284.367-28.3207 282.619-26.174 280.871-24.0273 279.997-21.0067 279.997-17.112L279.997-14.858C279.997-6.82333 283.57-2.806 290.715-2.806L291.267-2.806C294.457-2.806 297.079-3.41933 299.133-4.646L299.133-13.524 290.945-13.524 291.405-16.744 302.813-16.744 302.813-2.898C301.464-1.85533 299.816-1.01967 297.868-0.391 295.921 0.237667 293.736 0.552 291.313 0.552ZM318.771 0.552C315.551 0.552 313.006-0.444667 311.135-2.438 309.265-4.43133 308.329-7.23733 308.329-10.856L308.329-12.558C308.329-14.9193 308.759-16.951 309.617-18.653 310.476-20.355 311.695-21.666 313.275-22.586 314.854-23.506 316.686-23.966 318.771-23.966L319.139-23.966C321.194-23.966 322.965-23.5367 324.453-22.678 325.94-21.8193 327.097-20.6003 327.926-19.021 328.753-17.4417 329.167-15.594 329.168-13.478L329.168-10.672 311.964-10.672C311.994-7.94267 312.615-5.90333 313.827-4.554 315.038-3.20467 316.686-2.53 318.771-2.53L319.461-2.53C320.995-2.53 322.245-2.806 323.211-3.358 324.176-3.91 324.951-4.70733 325.534-5.75L328.34-4.048C327.542-2.63733 326.384-1.518 324.866-0.69 323.349 0.138 321.547 0.552 319.461 0.552ZM312.009-13.478 325.534-13.478 325.534-13.984C325.534-16.2533 324.958-17.9707 323.809-19.136 322.659-20.3013 321.102-20.884 319.139-20.884L318.771-20.884C316.87-20.884 315.298-20.2553 314.056-18.998 312.815-17.7407 312.132-15.9007 312.009-13.478ZM344.21 0.552C342.186 0.552 340.369 0.0996666 338.759-0.805 337.149-1.70967 335.876-3.02067 334.941-4.738 334.005-6.45533 333.538-8.51 333.538-10.902L333.538-12.512C333.538-14.904 334.005-16.9587 334.941-18.676 335.876-20.3933 337.149-21.7043 338.759-22.609 340.369-23.5137 342.186-23.966 344.21-23.966L344.67-23.966C346.724-23.966 348.557-23.5137 350.167-22.609 351.777-21.7043 353.049-20.401 353.985-18.699 354.92-16.997 355.388-14.95 355.388-12.558L355.388-10.856C355.388-8.464 354.92-6.417 353.985-4.715 353.049-3.013 351.777-1.70967 350.167-0.805 348.557 0.0996666 346.724 0.552 344.67 0.552ZM344.256-2.622 344.624-2.622C346.617-2.622 348.296-3.312 349.661-4.692 351.026-6.072 351.708-8.12667 351.708-10.856L351.708-12.558C351.708-15.2873 351.026-17.342 349.661-18.722 348.296-20.102 346.617-20.792 344.624-20.792L344.256-20.792C342.293-20.792 340.629-20.102 339.265-18.722 337.9-17.342 337.218-15.2873 337.218-12.558L337.218-10.856C337.218-8.12667 337.9-6.072 339.265-4.692 340.629-3.312 342.293-2.622 344.256-2.622ZM361.18 0 361.18-23.414 364.538-23.414 364.538-19.228C365.182-20.6693 366.11-21.8193 367.321-22.678 368.532-23.5367 369.981-23.966 371.668-23.966L372.082-23.966C375.915-23.966 378.43-22.31 379.626-18.998 380.301-20.5007 381.29-21.7043 382.593-22.609 383.896-23.5137 385.422-23.966 387.17-23.966L387.584-23.966C390.16-23.966 392.184-23.1533 393.656-21.528 395.128-19.9027 395.864-17.526 395.864-14.398L395.864 0 392.184 0 392.184-13.8C392.184-16.1 391.755-17.8403 390.896-19.021 390.037-20.2017 388.688-20.792 386.848-20.792L386.526-20.792C385.483-20.792 384.487-20.493 383.536-19.895 382.585-19.297 381.819-18.4077 381.236-17.227 380.653-16.0463 380.362-14.5667 380.362-12.788L380.362 0 376.682 0 376.682-13.8C376.682-16.1 376.253-17.8403 375.394-19.021 374.535-20.2017 373.186-20.792 371.346-20.792L371.024-20.792C369.981-20.792 368.992-20.493 368.057-19.895 367.122-19.297 366.355-18.4077 365.757-17.227 365.159-16.0463 364.86-14.5667 364.86-12.788L364.86 0ZM412.157 0.552C408.937 0.552 406.392-0.444667 404.521-2.438 402.65-4.43133 401.715-7.23733 401.715-10.856L401.715-12.558C401.715-14.9193 402.144-16.951 403.003-18.653 403.862-20.355 405.081-21.666 406.66-22.586 408.239-23.506 410.072-23.966 412.157-23.966L412.525-23.966C414.58-23.966 416.351-23.5367 417.838-22.678 419.325-21.8193 420.483-20.6003 421.311-19.021 422.139-17.4417 422.553-15.594 422.553-13.478L422.553-10.672 405.349-10.672C405.38-7.94267 406.001-5.90333 407.212-4.554 408.423-3.20467 410.072-2.53 412.157-2.53L412.847-2.53C414.38-2.53 415.63-2.806 416.596-3.358 417.562-3.91 418.336-4.70733 418.919-5.75L421.725-4.048C420.928-2.63733 419.77-1.518 418.252-0.69 416.734 0.138 414.932 0.552 412.847 0.552ZM405.395-13.478 418.919-13.478 418.919-13.984C418.919-16.2533 418.344-17.9707 417.194-19.136 416.044-20.3013 414.488-20.884 412.525-20.884L412.157-20.884C410.256-20.884 408.684-20.2553 407.442-18.998 406.2-17.7407 405.518-15.9007 405.395-13.478ZM437.917 0.184C435.219 0.184 433.302-0.444667 432.167-1.702 431.033-2.95933 430.465-4.67667 430.465-6.854L430.465-20.378 425.451-20.378 425.451-23.414 430.465-23.414 430.465-30.498 434.145-30.498 434.145-23.414 442.241-23.414 441.735-20.378 434.145-20.378 434.145-7.084C434.145-5.612 434.483-4.54633 435.157-3.887 435.832-3.22767 436.875-2.898 438.285-2.898L442.241-2.898 442.241 0.184ZM447.69 0 447.69-23.414 451.048-23.414 451.048-18.492C451.6-20.0253 452.436-21.2597 453.555-22.195 454.675-23.1303 456.308-23.598 458.454-23.598L460.616-23.598 460.616-20.24 458.27-20.24C456.277-20.24 454.629-19.5577 453.325-18.193 452.022-16.8283 451.37-14.7353 451.37-11.914L451.37 0ZM465.196 9.2 465.196 6.118 466.484 6.118C467.925 6.118 469.021 5.796 469.773 5.152 470.524 4.508 471.237 3.266 471.912 1.426L472.418 0.046 463.172-23.414 467.082-23.414 474.35-3.864 481.296-23.414 485.022-23.414 475.546 1.564C474.81 3.55733 474.058 5.11367 473.292 6.233 472.525 7.35233 471.636 8.12667 470.624 8.556 469.612 8.98533 468.354 9.2 466.852 9.2Z" transform="matrix(1 0 0 1 38.4622 202)"/></g></g></g><rect x="2056.5" y="550.5" width="647" height="300" stroke="#000000" stroke-width="1.14583" stroke-linejoin="round" stroke-miterlimit="10" fill="#D7EDFF"/><text font-family="NVIDIA Sans,NVIDIA Sans_MSFontService,sans-serif" font-weight="400" font-size="55" transform="matrix(1 0 0 1 2276.25 658)">builtin.h<tspan font-size="46" x="-139.792" y="124">Array, Math, Geometry</tspan><tspan font-size="55" x="-1299.31" y="622">AST Traversal</tspan><tspan font-size="55" x="1062.86" y="636">import</tspan><tspan font-size="55" x="-456.901" y="1272">Kernel Cache</tspan></text><g clip-path="url(#clip74)" filter="url(#fx21)" transform="translate(2687 1315)"><g clip-path="url(#clip75)"><path d="M124.041 51.7867 16.5407 52.5828 16.4593 41.5831 123.96 40.787ZM118.378 29.8281 151.5 46.0833 118.623 62.8272Z"/></g></g><path d="M2809.9 1362.44 2703.54 1363.23 2703.46 1351.77 2809.81 1350.98ZM2804 1339.57 2838.5 1356.5 2804.25 1373.94Z"/><g clip-path="url(#clip76)" filter="url(#fx22)" transform="translate(2334 844)"><g clip-path="url(#clip77)"><path d="M51 11.0832 51.0003 80.4446 40.0003 80.4446 40 11.0833ZM62.0002 74.9445 45.5004 107.945 29.0002 74.9447Z"/></g></g><path d="M2385.23 850.5 2385.23 918.715 2373.77 918.715 2373.77 850.5ZM2396.69 912.986 2379.5 947.361 2362.31 912.986Z"/></g></svg>